<?xml version="1.0" encoding="utf-8"?>
<!-- Generator: Adobe Illustrator 20.1.0, SVG Export Plug-In . SVG Version: 6.00 Build 0)  -->
<svg version="1.1" id="Layer_1" xmlns="http://www.w3.org/2000/svg" xmlns:xlink="http://www.w3.org/1999/xlink" x="0px" y="0px"
	 viewBox="0 0 215.3 180.9" style="enable-background:new 0 0 215.3 180.9;" xml:space="preserve">
<style type="text/css">
	.st0{fill:#FFFFFF;}
</style>
<g>
	<path class="st0" d="M108.9,0l-8.4,37C36.9,54-8.8,98.7,1.4,136.7c10.2,38,55.2,54.6,118.9,37.5c63.7-17.1,103.6-56.4,93.4-94.4
		c-2.5-9.5-9.3-21.7-17.3-28.4c-8-6.7-37-30.5-69.6-21.5L108.9,0z"/>
	<path d="M159.2,112.3c-0.2-0.6-0.9-1.1-1.8-0.8c-0.9,0.3-1.3,1.1-1,1.9c0.2,0.8,0.9,1.1,1.8,0.8C159,114,159.5,113.3,159.2,112.3
		 M154.1,96.8c-0.1-0.4-0.3-0.6-0.7-0.6c-0.4,0.5-1.6,1.3-2.2,1.6c1.5,3.2,2.8,6.2,4.6,10.8c0.3,0,0.8-0.1,1.2-0.2
		C155.8,104.5,154.7,99.9,154.1,96.8 M147.2,106c-0.2-0.6-0.5-0.8-0.9-0.8c-0.5,0.6-2.3,1.7-3,1.9c-0.1,0.3,0,0.6,0.1,1
		c1.7-0.5,2,0,2.4,1.1l1.6,4.9c0.5,1.6,0.3,2.3-1,2.7c0,0.4,0.1,0.8,0.2,1.1c0.8-0.3,1.9-0.7,2.8-1c0.9-0.3,1.9-0.6,2.8-0.8
		c-0.1-0.2-0.3-0.7-0.5-1c-1.1,0.3-1.6,0-2.1-1.7L147.2,106z M143.7,99.7c-0.8,0.2-1.3,1.1-1,2c0.3,0.8,1.1,1.2,1.9,1
		c0.8-0.3,1.3-1.1,1-1.9C145.3,99.8,144.6,99.4,143.7,99.7 M135.7,109.1l-1.6,0.5c0,0.4,0,0.7,0.1,1.2c0.8-0.2,1.3-0.3,1.9-0.3
		l2.2,6.7c0.7,2.2,1.9,2.9,3.9,2.2c1-0.3,2.1-1.2,2.4-2c-0.1-0.3-0.4-0.5-0.6-0.7c-0.3,0.5-0.7,0.9-1.4,1.1
		c-0.9,0.3-1.6-0.3-2.2-1.9l-2-6.2c0.8-0.4,1.7-0.8,2.9-1.3c0-0.4,0-0.8-0.1-1.2l-3.2,1l-1-3c-0.3-1-0.4-1.1-0.8-1.2
		c-0.4,0.6-0.9,1.2-1.5,1.6L135.7,109.1z M132.6,113.4c-0.4-0.8-0.7-1.7-0.9-2.5c-1.2-0.2-2.3-0.2-3.8,0.3c-1.7,0.5-3.8,2.3-3.1,4.4
		c0.6,2,1.9,2.4,4.9,2.6c2.5,0.2,3.1,0.4,3.4,1.3c0.3,0.9-0.3,1.8-1.6,2.3c-1.7,0.6-3.1-0.1-4-2.1c-0.5,0.2-1,0.4-1.2,0.7
		c0.3,0.8,0.8,2.3,1,3.1c1.3,0.2,2.4,0.2,4.4-0.4c2.6-0.8,4.1-2.8,3.4-4.9c-0.6-1.7-1.7-2.3-4.7-2.5c-3-0.2-3.4-0.5-3.7-1.3
		c-0.3-0.8,0.2-1.6,1.2-1.9c1.6-0.5,3.1,0.5,3.6,1.8C131.9,113.9,132.4,113.7,132.6,113.4 M117.3,115.9c1.4-0.5,2.7,0.7,3.4,2.9
		l-4.7,1.5C115.2,117.4,116.1,116.3,117.3,115.9 M123.9,122.3c-0.5,1.2-1.5,2.1-2.5,2.4c-2.6,0.8-4.1-1-5-3.1c2.5-1,5.8-2,6.9-2.4
		c0.1-0.3,0.1-0.6,0.1-1c-1.1-2.7-3.1-4.6-6.3-3.6c-3.2,1-4.2,4.4-3.2,7.5c1,3.2,3.6,5.3,7.1,4.2c1.8-0.6,3.1-1.6,3.7-3.5
		C124.6,122.6,124.2,122.3,123.9,122.3 M109.6,135.1c-2,0.7-3,0-3.6-1.6c-0.3-0.8-0.3-1.4,0.2-2.2c0.4-0.1,0.8-0.2,1.3-0.4
		c3.4-1.1,4.2-0.9,4.6,0.4C112.7,132.7,111.8,134.4,109.6,135.1 M104.4,120c1.6-0.5,2.9,0.7,3.5,2.4c0.6,1.7,0.1,2.9-1,3.2
		c-1.6,0.5-2.9-0.3-3.5-2.4C102.9,121.9,103.1,120.4,104.4,120 M108.6,128.4c-3.2,1-3.6,1-3.9,0.1c-0.1-0.3-0.1-0.8,0.2-1.4
		c0.7,0,1.3-0.1,2-0.3c2.9-0.9,3.9-3.3,3.1-5.6c-0.2-0.7-0.9-1.7-2-2.2c0.8-0.2,1.9-0.3,2.5-0.4c-0.2-0.5-0.4-1.1-0.7-1.5l-4,1.3
		c-0.5,0-1,0.1-1.6,0.3c-2.9,1-3.8,3.3-3.1,5.5c0.5,1.4,1.4,2.3,2.6,2.6c-0.5,1-0.8,2.1-0.5,3c0.3,0.9,0.8,1.4,1.8,1.4
		c-1,0.9-1.3,2-1,3.2c0.7,2.2,2.3,2.9,5.4,1.9c3.5-1.2,5.2-4.7,4.5-6.9C113.3,127.7,111.9,127.3,108.6,128.4 M96.5,130.6
		c0.5,1.6,0.3,2.3-1,2.7c0,0.4,0.1,0.8,0.2,1.1c0.8-0.3,1.9-0.7,2.8-1c0.9-0.3,1.9-0.6,2.8-0.8c-0.1-0.2-0.3-0.7-0.5-1
		c-1.1,0.3-1.6,0-2.1-1.7l-4.4-13.5c-0.2-0.6-0.5-0.8-0.9-0.8c-0.5,0.6-2.3,1.7-3,1.9c-0.1,0.3,0,0.6,0.1,1c1.7-0.5,2,0,2.4,1.1
		L96.5,130.6z M89.1,124.9c-0.2-0.7-0.6-0.9-0.9-0.9c-0.6,0.6-1.9,1.3-3.1,1.8c-0.1,0.4,0,0.6,0.1,1c1.6-0.5,2,0,2.4,1.1l0.8,2.5
		c0.9,2.9,0.1,4.6-1.5,5.1c-1.5,0.5-2.4-0.5-3.2-2.8l-1.8-5.6c-0.2-0.7-0.6-0.9-0.9-0.9c-0.6,0.6-1.9,1.4-2.9,1.9
		c-0.1,0.3,0,0.6,0.1,1c1.5-0.4,1.8,0.1,2.2,1.2l1.2,3.7c1.1,3.3,2.7,4,4.9,3.2c1.3-0.4,2.1-1.1,2.7-2.3c0.2-0.5,0.4-0.9,0.4-1.3
		c0.1,0.5,0.2,0.8,0.3,1.1c0.4,1.1,0.7,1.2,1.1,1.2c0.6-0.7,1.8-1.4,2.6-1.7c0-0.4-0.1-0.8-0.2-1.2c-1.4,0.4-1.7,0-2.1-1.2
		L89.1,124.9z M76.6,139.8c0.8,2.5,0.8,4-0.4,6.9c0.2,0.3,0.5,0.5,0.8,0.5c1.5-1.6,3-4.7,1.9-8l-3.2-9.9c-0.2-0.6-0.5-0.8-0.9-0.8
		c-0.5,0.6-2.3,1.7-3,1.9c-0.1,0.3,0,0.6,0.1,1c1.7-0.5,2,0,2.4,1.1L76.6,139.8z M72.2,122.9c-0.8,0.2-1.3,1.1-1,2
		c0.3,0.8,1.1,1.2,1.9,1c0.8-0.3,1.3-1.1,1-1.9C73.8,123.1,73,122.6,72.2,122.9"/>
	<path d="M127.3,79.7c-0.2-0.6-0.5-0.8-0.9-0.8c-0.5,0.6-2.3,1.7-3,1.9c-0.1,0.3,0,0.6,0.1,1c1.7-0.5,2,0,2.4,1.1l1.6,4.9
		c0.5,1.6,0.3,2.3-1,2.7c0,0.4,0.1,0.8,0.2,1.1c0.8-0.3,1.9-0.7,2.8-1c0.9-0.3,1.9-0.6,2.8-0.8c-0.1-0.2-0.3-0.7-0.5-1
		c-1.1,0.3-1.6,0-2.1-1.7L127.3,79.7z M123.9,73.5c-0.8,0.2-1.3,1.1-1,2c0.3,0.8,1.1,1.2,1.9,1c0.8-0.3,1.3-1.1,1-1.9
		C125.5,73.6,124.8,73.2,123.9,73.5 M121.4,84.4c-0.4-0.8-0.7-1.7-0.9-2.5c-1.2-0.2-2.3-0.2-3.8,0.3c-1.6,0.5-3.8,2.3-3.1,4.4
		c0.6,2,1.9,2.4,4.9,2.6c2.5,0.2,3.1,0.4,3.4,1.3c0.3,0.9-0.3,1.8-1.6,2.3c-1.7,0.6-3.1-0.1-4-2.1c-0.5,0.2-1,0.4-1.2,0.7
		c0.3,0.8,0.8,2.3,1,3.1c1.3,0.2,2.4,0.2,4.4-0.4c2.6-0.8,4.1-2.8,3.4-4.9c-0.6-1.7-1.7-2.3-4.7-2.5c-3-0.2-3.4-0.5-3.7-1.3
		c-0.3-0.8,0.2-1.6,1.2-1.9c1.6-0.5,3.1,0.5,3.6,1.8C120.8,84.9,121.2,84.7,121.4,84.4 M109.5,85.6c-0.2-0.7-0.6-0.9-0.9-0.9
		c-0.6,0.6-1.9,1.3-3.1,1.8c-0.1,0.4,0,0.6,0.1,1c1.6-0.5,2,0,2.4,1.1l0.8,2.5c0.9,2.9,0.1,4.6-1.5,5.1c-1.5,0.5-2.4-0.5-3.2-2.8
		l-1.8-5.6c-0.2-0.7-0.6-0.9-0.9-0.9c-0.6,0.6-1.9,1.5-2.9,1.9c-0.1,0.3,0,0.6,0.1,1c1.5-0.4,1.8,0.1,2.2,1.2l1.2,3.7
		c1.1,3.3,2.7,4,4.9,3.2c1.3-0.4,2.1-1.1,2.7-2.3c0.2-0.5,0.4-0.9,0.4-1.3c0.1,0.5,0.2,0.8,0.3,1.1c0.4,1.1,0.7,1.2,1.1,1.2
		c0.6-0.7,1.8-1.4,2.6-1.7c0-0.4-0.1-0.8-0.2-1.2c-1.4,0.4-1.7,0-2.1-1.2L109.5,85.6z M106.2,83.7c1-0.3,1.1-1.1,0.9-1.8
		c-0.2-0.7-1-1.1-1.8-0.8c-0.8,0.3-1.2,0.9-1,1.7C104.6,83.6,105.2,84,106.2,83.7 M101.4,85.3c0.8-0.2,1.2-1,0.9-1.7
		s-0.9-1.2-1.8-0.9c-1,0.3-1.1,1.1-0.9,1.8C99.8,85.2,100.5,85.6,101.4,85.3 M94.3,96.6c-1.7-1.2-3.3-2.4-4.9-3.1l2.6-5.6
		c1.1-2.2,1.7-2.8,2.8-3.3c0-0.3-0.1-0.8-0.2-1.1c-0.6,0.3-1.5,0.6-2.5,0.9s-2,0.6-2.6,0.8c0.1,0.4,0.3,0.7,0.5,1
		c1.1-0.3,1.6,0,0.4,2.4l-2.9,6.1L86,89.9c-0.5-1.6-0.3-2.2,1-2.7c0-0.3-0.1-0.7-0.2-1.1c-1,0.4-1.9,0.7-3,1c-1.1,0.3-2.1,0.6-3,0.9
		c0.1,0.4,0.3,0.8,0.5,1c1.3-0.3,1.9-0.1,2.4,1.6L87,101c0.5,1.6,0.3,2.2-1,2.7c0,0.3,0.1,0.7,0.2,1.1c0.8-0.3,2-0.7,3-1
		c1-0.3,2-0.6,3-0.9c-0.1-0.4-0.3-0.8-0.5-1c-1.3,0.3-1.9,0.1-2.4-1.6l-1.6-4.9c3.1,1.4,7.6,4.6,9.3,6c1.2-0.5,2.6-1,3.9-1.4
		c0-0.4-0.1-0.8-0.2-1C99,99.4,96.6,98.1,94.3,96.6"/>
</g>
</svg>
