<?xml version="1.0" encoding="utf-8"?>
<!-- Generator: Adobe Illustrator 20.1.0, SVG Export Plug-In . SVG Version: 6.00 Build 0)  -->
<svg version="1.1" id="Layer_1" xmlns="http://www.w3.org/2000/svg" xmlns:xlink="http://www.w3.org/1999/xlink" x="0px" y="0px"
	 viewBox="0 0 215.3 43.3" style="enable-background:new 0 0 215.3 43.3;" xml:space="preserve">
<style type="text/css">
	.st0{fill:#01684A;}
	.st1{fill:#FFFFFF;}
</style>
<g>
	<path class="st0" d="M8,0c0,0-8,0-8,8v27.3c0,0,0,8,8,8h199.3c0,0,8,0,8-8V8c0,0,0-8-8-8H8z"/>
	<path class="st1" d="M154.8,25.1c0,0.4,0,0.8-0.1,1c-0.1,0.3-0.2,0.5-0.3,0.6c-0.1,0.1-0.3,0.2-0.6,0.3c-0.2,0.1-0.6,0.1-0.9,0.1
		c-0.1,0.2-0.1,0.4-0.2,0.7c0,0.3-0.1,0.5-0.1,0.7c0.2,0,0.4,0,0.8,0c0.3,0,0.7,0,1,0s0.8,0,1.2,0h1.2c0.8,0,1.5,0,2.1,0
		s1.1,0,1.4,0c0-0.2,0-0.5,0-0.8c0-0.3-0.1-0.5-0.1-0.7c-0.4,0-0.7,0-0.9-0.1c-0.2-0.1-0.4-0.2-0.5-0.3c-0.1-0.1-0.2-0.3-0.3-0.6
		c0-0.3-0.1-0.6-0.1-1v-7.5h0.4c0.6,0,1.1,0.2,1.4,0.6c0.3,0.4,0.5,1,0.7,1.8c0.4,0,0.7,0,1-0.1c0.3,0,0.6-0.1,0.8-0.2
		c-0.1-0.5-0.2-1.1-0.3-1.8c-0.1-0.6-0.1-1.2-0.1-1.7c-0.4,0-0.8,0-1.1,0c-0.4,0-0.8,0-1.2,0c-0.4,0-0.9,0-1.4,0h-3.7
		c-0.5,0-1,0-1.4,0c-0.4,0-0.8,0-1.2,0s-0.7,0-1.1,0c0,0.3,0,0.5,0,0.8c0,0.3-0.1,0.6-0.1,0.9c0,0.3-0.1,0.6-0.1,0.9
		c-0.1,0.3-0.1,0.6-0.2,0.8c0.3,0.1,0.5,0.2,0.9,0.2c0.3,0,0.7,0,1,0c0.2-0.8,0.5-1.4,0.8-1.8c0.3-0.4,0.8-0.6,1.5-0.6h0V25.1z
		 M146.5,27.1c-0.3,0-0.5,0-0.7-0.1c-0.2-0.1-0.3-0.2-0.4-0.3c-0.1-0.2-0.2-0.4-0.2-0.6c0-0.3-0.1-0.6-0.1-1v-5.4c0-0.4,0-0.7,0-1
		c0-0.2,0.1-0.4,0.2-0.6c0.1-0.1,0.2-0.2,0.4-0.3c0.2-0.1,0.4-0.1,0.6-0.1c0.1-0.2,0.1-0.4,0.1-0.7c0-0.3,0-0.5,0-0.7
		c-0.2,0-0.4,0-0.7,0c-0.3,0-0.6,0-0.8,0c-0.3,0-0.6,0-0.9,0h-1.7c-0.3,0-0.5,0-0.7,0c-0.2,0-0.5,0-0.7,0c-0.2,0-0.5,0-0.8,0
		c0,0.2,0,0.4,0,0.7c0,0.3,0.1,0.5,0.1,0.7c0.3,0,0.5,0.1,0.6,0.1c0.2,0.1,0.3,0.2,0.4,0.3c0.1,0.1,0.2,0.3,0.2,0.6c0,0.2,0,0.6,0,1
		v5.5c0,0.4,0,0.8,0,1s-0.1,0.5-0.2,0.6c-0.1,0.1-0.2,0.2-0.4,0.3c-0.2,0.1-0.4,0.1-0.6,0.1c0,0.2-0.1,0.4-0.1,0.6
		c0,0.3,0,0.5,0,0.8c0.2,0,0.6,0,1,0c0.5,0,1,0,1.6,0c0.6,0,1.1,0,1.7,0c0.5,0,1,0,1.3,0h1.2c0.4,0,0.9,0,1.3,0c0.4,0,0.8,0,1.2,0
		c0.4,0,0.7,0,1,0c0-0.6,0.1-1.2,0.2-1.8c0.1-0.6,0.2-1.1,0.3-1.5c-0.2-0.1-0.4-0.3-0.7-0.4s-0.7-0.2-1.1-0.2
		c-0.2,0.9-0.5,1.5-0.9,1.9c-0.4,0.4-0.8,0.6-1.5,0.6H146.5z M134,25.1c0,0.4,0,0.8,0,1s-0.1,0.5-0.2,0.6c-0.1,0.1-0.2,0.2-0.4,0.3
		c-0.2,0.1-0.3,0.1-0.6,0.1c0,0.2-0.1,0.4-0.1,0.7c0,0.3-0.1,0.5-0.1,0.7c0.4,0,0.9,0,1.6,0c0.6,0,1.2,0,1.9,0c0.6,0,1.2,0,1.7,0
		s0.9,0,1.2,0c0-0.2,0-0.5,0-0.8c0-0.3-0.1-0.5-0.1-0.7c-0.2,0-0.4,0-0.6-0.1c-0.2-0.1-0.3-0.2-0.4-0.3c-0.1-0.1-0.2-0.3-0.2-0.6
		c0-0.3,0-0.6,0-1v-5.5c0-0.4,0-0.7,0-1c0-0.2,0.1-0.4,0.2-0.6c0.1-0.1,0.2-0.2,0.4-0.3c0.2-0.1,0.4-0.1,0.6-0.1
		c0.1-0.2,0.1-0.5,0.1-0.7c0-0.2,0-0.5,0-0.7c-0.2,0-0.4,0-0.7,0s-0.5,0-0.8,0c-0.3,0-0.6,0-0.8,0h-1.5c-0.3,0-0.6,0-0.9,0
		c-0.3,0-0.6,0-0.9,0c-0.3,0-0.5,0-0.6,0c0,0.2,0,0.5,0,0.8s0.1,0.5,0.1,0.7c0.3,0,0.5,0.1,0.6,0.1c0.2,0.1,0.3,0.2,0.4,0.3
		c0.1,0.1,0.1,0.3,0.2,0.6c0,0.2,0,0.6,0,1V25.1z M126.8,18.1c0.3,0.4,0.5,1,0.5,1.8c0,0.4-0.1,0.7-0.2,1s-0.3,0.5-0.5,0.7
		c-0.2,0.2-0.4,0.3-0.7,0.4c-0.3,0.1-0.5,0.1-0.8,0.1c-0.1,0-0.2,0-0.3,0c-0.1,0-0.2,0-0.3,0v-4.5c0.2-0.1,0.5-0.1,0.8-0.1
		C126,17.5,126.4,17.7,126.8,18.1 M121,16.2c-0.5,0-1,0-1.4-0.1c0,0.1,0,0.2,0,0.3c0,0.1,0,0.3,0,0.4c0,0.1,0,0.3,0,0.4
		c0,0.1,0,0.2,0.1,0.3c0.3,0,0.5,0.1,0.6,0.1c0.2,0.1,0.3,0.2,0.4,0.3c0.1,0.1,0.2,0.3,0.2,0.6s0,0.6,0,1v5.6c0,0.4,0,0.8,0,1
		s-0.1,0.5-0.2,0.6c-0.1,0.1-0.2,0.2-0.4,0.3c-0.2,0.1-0.4,0.1-0.6,0.1c0,0.2-0.1,0.4-0.1,0.6c0,0.2,0,0.5,0,0.8c0.4,0,0.9,0,1.4,0
		c0.5,0,1,0,1.5,0h0.8c0.3,0,0.6,0,0.9,0s0.6,0,0.9,0c0.3,0,0.5,0,0.7,0c0-0.3,0-0.5,0-0.8c0-0.3-0.1-0.5-0.1-0.6
		c-0.2,0-0.3,0-0.4-0.1c-0.1,0-0.2-0.1-0.3-0.3c-0.1-0.2-0.1-0.4-0.2-0.7c0-0.3,0-0.7,0-1.2v-1.1h0.1h0.4h0.2
		c0.1,0.1,0.2,0.1,0.2,0.2c0.1,0.1,0.3,0.3,0.4,0.4c0.1,0.2,0.2,0.4,0.3,0.6c0.1,0.2,0.2,0.5,0.4,0.9c0.2,0.5,0.4,0.9,0.5,1.4
		c0.2,0.5,0.3,0.9,0.5,1.4c0.3,0,0.8-0.1,1.6-0.1c0.8,0,1.6,0,2.6,0c0.1-0.5,0.2-0.9,0.2-1.4c-0.2,0-0.3,0-0.5-0.1
		c-0.1,0-0.2-0.1-0.3-0.2c-0.1-0.1-0.2-0.2-0.3-0.4s-0.2-0.3-0.3-0.6c-0.2-0.5-0.4-0.9-0.6-1.2c-0.2-0.3-0.3-0.6-0.5-0.8
		c-0.2-0.2-0.3-0.3-0.5-0.4c-0.1-0.1-0.2-0.1-0.3-0.2c0.2,0,0.4-0.1,0.5-0.2c0.4-0.2,0.7-0.4,1-0.8c0.3-0.3,0.5-0.7,0.7-1.2
		c0.2-0.5,0.3-1,0.3-1.6c0-0.5-0.1-0.9-0.3-1.3c-0.2-0.4-0.4-0.8-0.8-1.1c-0.4-0.3-0.8-0.6-1.4-0.7c-0.6-0.2-1.2-0.3-2-0.3
		c-0.8,0-1.5,0-2.2,0c-0.7,0-1.2,0-1.6,0C122.2,16.2,121.6,16.2,121,16.2 M114.3,12.5c-0.3,0.3-0.5,0.6-0.5,1.1
		c0,0.5,0.2,0.9,0.5,1.2c0.3,0.3,0.8,0.5,1.4,0.5c0.3,0,0.6,0,0.8-0.1c0.2-0.1,0.4-0.2,0.5-0.4c0.1-0.2,0.2-0.3,0.3-0.5
		c0.1-0.2,0.1-0.4,0.1-0.6c0-0.4-0.2-0.8-0.5-1s-0.8-0.4-1.3-0.4C115.1,12.1,114.7,12.3,114.3,12.5 M112.2,14.8
		c0.3-0.3,0.5-0.6,0.5-1.1c0-0.5-0.1-0.8-0.4-1.1c-0.3-0.3-0.7-0.5-1.3-0.5c-0.3,0-0.6,0-0.8,0.1c-0.2,0.1-0.4,0.2-0.5,0.4
		c-0.1,0.2-0.2,0.3-0.3,0.5c-0.1,0.2-0.1,0.4-0.1,0.6c0,0.4,0.2,0.7,0.5,1s0.7,0.4,1.3,0.4C111.5,15.2,111.9,15.1,112.2,14.8
		 M117.5,19.8c0-0.4,0-0.8,0-1s0.1-0.5,0.2-0.7c0.1-0.2,0.2-0.3,0.3-0.4c0.1-0.1,0.3-0.1,0.6-0.2c0.1-0.2,0.1-0.4,0.1-0.7
		c0-0.2,0-0.5,0-0.8c-0.2,0-0.5,0-0.9,0c-0.4,0-0.7,0-1.1,0h-0.5c-0.2,0-0.4,0-0.6,0c-0.2,0-0.4,0-0.6,0c-0.2,0-0.3,0-0.4,0
		c0,0.5,0,0.9,0.1,1.4c0.2,0,0.4,0.1,0.6,0.2c0.2,0.1,0.3,0.2,0.4,0.4c0.1,0.2,0.2,0.4,0.2,0.7c0,0.3,0.1,0.7,0.1,1.1v3.3
		c0,0.9,0,1.6-0.1,2.1c-0.1,0.5-0.2,0.8-0.4,1c-0.2,0.3-0.4,0.5-0.7,0.6c-0.3,0.1-0.6,0.2-0.8,0.2c-0.7,0-1.2-0.3-1.5-0.8
		c-0.3-0.5-0.5-1.4-0.5-2.5v-4.2c0-0.4,0-0.7,0-1c0-0.3,0.1-0.5,0.2-0.6c0.1-0.1,0.2-0.3,0.4-0.3c0.2-0.1,0.3-0.1,0.6-0.2
		c0-0.2,0.1-0.4,0.1-0.6c0-0.2,0-0.5,0-0.8c-0.1,0-0.4,0-0.7,0c-0.3,0-0.7,0-1,0c-0.4,0-0.8,0-1.1,0h-0.9c-0.5,0-1,0-1.4,0
		c-0.5,0-0.8,0-1,0c0,0.5,0,1,0.1,1.4c0.2,0,0.4,0.1,0.6,0.2c0.2,0.1,0.3,0.2,0.4,0.3c0.1,0.1,0.2,0.3,0.2,0.6c0,0.3,0.1,0.6,0.1,1
		v4.5c0,0.8,0.1,1.5,0.2,2.1s0.4,1,0.8,1.4c0.4,0.4,0.9,0.6,1.5,0.8c0.6,0.2,1.4,0.3,2.3,0.3c0.7,0,1.3-0.1,1.8-0.2
		c0.5-0.1,1-0.4,1.4-0.7c0.4-0.4,0.7-1,0.9-1.6c0.2-0.7,0.2-1.5,0.2-2.6V19.8z M104.8,19.6c0-0.4,0-0.7,0-0.9s0.1-0.5,0.1-0.6
		c0.1-0.2,0.2-0.3,0.4-0.3c0.2-0.1,0.4-0.1,0.7-0.1c0.1-0.2,0.1-0.4,0.1-0.7c0-0.2,0-0.5,0-0.8c-0.2,0-0.4,0-0.7,0
		c-0.3,0-0.5,0-0.8,0c-0.3,0-0.6,0-0.8,0h-1.6c-0.3,0-0.6,0-0.8,0c-0.3,0-0.6,0-0.8,0s-0.5,0-0.7,0c0,0.2,0,0.5,0,0.7
		c0,0.3,0.1,0.5,0.1,0.7c0.3,0,0.5,0.1,0.6,0.1c0.2,0.1,0.3,0.2,0.4,0.3c0.1,0.1,0.1,0.3,0.2,0.6c0,0.3,0,0.6,0,1v7.7
		c0,0.6,0,1.2-0.1,1.6c-0.1,0.4-0.2,0.8-0.3,1.1c-0.2,0.3-0.3,0.6-0.6,0.8c-0.2,0.2-0.5,0.5-0.9,0.7c0,0.3,0.1,0.5,0.2,0.7
		c0.1,0.2,0.3,0.4,0.5,0.6c1-0.4,1.9-0.8,2.5-1.2c0.6-0.5,1.1-1,1.5-1.5s0.6-1.2,0.7-1.9c0.1-0.7,0.2-1.5,0.2-2.3V19.6z M90.1,25.1
		c0,0.4,0,0.8,0,1s-0.1,0.5-0.2,0.6c-0.1,0.1-0.2,0.2-0.4,0.3c-0.2,0.1-0.3,0.1-0.6,0.1c0,0.2-0.1,0.4-0.1,0.7
		c0,0.3-0.1,0.5-0.1,0.7c0.4,0,0.9,0,1.6,0c0.6,0,1.2,0,1.9,0s1.2,0,1.7,0c0.5,0,0.9,0,1.2,0c0-0.2,0-0.5,0-0.8
		c0-0.3-0.1-0.5-0.1-0.7c-0.2,0-0.4,0-0.6-0.1c-0.2-0.1-0.3-0.2-0.4-0.3c-0.1-0.1-0.2-0.3-0.2-0.6c0-0.3,0-0.6,0-1v-5.5
		c0-0.4,0-0.7,0-1c0-0.2,0.1-0.4,0.2-0.6c0.1-0.1,0.2-0.2,0.4-0.3c0.2-0.1,0.4-0.1,0.6-0.1c0.1-0.2,0.1-0.5,0.1-0.7
		c0-0.2,0-0.5,0-0.7c-0.2,0-0.4,0-0.7,0s-0.5,0-0.8,0c-0.3,0-0.6,0-0.8,0h-1.5c-0.3,0-0.6,0-0.9,0c-0.3,0-0.6,0-0.9,0
		c-0.3,0-0.5,0-0.6,0c0,0.2,0,0.5,0,0.8s0.1,0.5,0.1,0.7c0.3,0,0.5,0.1,0.6,0.1c0.2,0.1,0.3,0.2,0.4,0.3c0.1,0.1,0.1,0.3,0.2,0.6
		c0,0.2,0,0.6,0,1V25.1z M81.9,16.3c-0.5,0.2-1,0.4-1.3,0.7c-0.4,0.3-0.7,0.7-0.9,1.1c-0.2,0.4-0.3,0.9-0.3,1.5c0,0.8,0.1,1.5,0.4,2
		c0.3,0.5,0.6,1,1,1.3c0.4,0.4,0.9,0.6,1.3,0.9c0.5,0.2,0.9,0.4,1.3,0.6c0.4,0.2,0.8,0.4,1,0.6c0.3,0.2,0.4,0.5,0.4,0.9
		c0,0.4-0.1,0.7-0.4,0.9c-0.3,0.2-0.7,0.3-1.1,0.3c-0.4,0-0.6,0-0.9-0.1c-0.2-0.1-0.4-0.2-0.5-0.4c-0.1-0.2-0.2-0.5-0.3-0.9
		c-0.1-0.4-0.1-0.8-0.2-1.4c-0.4,0-0.7,0-1.1,0c-0.4,0-0.7,0.1-1.1,0.2c0,0.5,0,1,0,1.5c0,0.5-0.1,1-0.2,1.6
		c0.3,0.2,0.6,0.3,0.9,0.5c0.3,0.1,0.6,0.2,0.9,0.3c0.3,0.1,0.6,0.1,1,0.2c0.4,0,0.8,0.1,1.3,0.1c0.7,0,1.3-0.1,1.9-0.3
		c0.6-0.2,1.1-0.4,1.5-0.8c0.4-0.3,0.8-0.7,1-1.2c0.2-0.5,0.4-1,0.4-1.6c0-0.7-0.1-1.3-0.4-1.8c-0.3-0.5-0.7-0.9-1.1-1.2
		c-0.4-0.3-0.9-0.6-1.4-0.8c-0.5-0.2-1-0.4-1.4-0.7c-0.4-0.2-0.8-0.5-1.1-0.7c-0.3-0.3-0.4-0.6-0.4-1c0-0.4,0.1-0.7,0.4-0.8
		c0.3-0.2,0.5-0.3,0.9-0.3c0.3,0,0.5,0,0.7,0.1c0.2,0.1,0.4,0.2,0.6,0.4c0.2,0.2,0.3,0.4,0.4,0.8c0.1,0.3,0.2,0.7,0.3,1.2
		c0.3,0,0.7,0,1.1-0.1c0.4-0.1,0.7-0.2,1-0.3c0-0.3-0.1-0.7-0.1-1.3c0-0.5,0-1.1,0-1.6c-0.3-0.2-0.8-0.3-1.4-0.5
		C85,16.1,84.3,16,83.5,16C82.9,16,82.4,16.1,81.9,16.3 M73.7,12.5c-0.3,0.3-0.5,0.6-0.5,1.1c0,0.5,0.2,0.9,0.5,1.2
		c0.3,0.3,0.8,0.5,1.4,0.5c0.3,0,0.6,0,0.8-0.1c0.2-0.1,0.4-0.2,0.5-0.4c0.1-0.2,0.2-0.3,0.3-0.5c0.1-0.2,0.1-0.4,0.1-0.6
		c0-0.4-0.2-0.8-0.5-1c-0.3-0.3-0.8-0.4-1.3-0.4C74.5,12.1,74,12.3,73.7,12.5 M71.6,14.8c0.3-0.3,0.5-0.6,0.5-1.1
		c0-0.5-0.1-0.8-0.4-1.1c-0.3-0.3-0.7-0.5-1.3-0.5c-0.3,0-0.6,0-0.8,0.1c-0.2,0.1-0.4,0.2-0.5,0.4c-0.1,0.2-0.2,0.3-0.3,0.5
		c-0.1,0.2-0.1,0.4-0.1,0.6c0,0.4,0.2,0.7,0.5,1c0.3,0.3,0.7,0.4,1.3,0.4C70.9,15.2,71.3,15.1,71.6,14.8 M76.9,19.8c0-0.4,0-0.8,0-1
		s0.1-0.5,0.2-0.7c0.1-0.2,0.2-0.3,0.3-0.4c0.1-0.1,0.3-0.1,0.6-0.2c0.1-0.2,0.1-0.4,0.1-0.7c0-0.2,0-0.5,0-0.8c-0.2,0-0.5,0-0.9,0
		c-0.4,0-0.7,0-1.1,0h-0.5c-0.2,0-0.4,0-0.6,0c-0.2,0-0.4,0-0.6,0c-0.2,0-0.3,0-0.4,0c0,0.5,0,0.9,0.1,1.4c0.2,0,0.4,0.1,0.6,0.2
		c0.2,0.1,0.3,0.2,0.4,0.4c0.1,0.2,0.2,0.4,0.2,0.7c0,0.3,0.1,0.7,0.1,1.1v3.3c0,0.9,0,1.6-0.1,2.1c-0.1,0.5-0.2,0.8-0.4,1
		c-0.2,0.3-0.4,0.5-0.7,0.6c-0.3,0.1-0.6,0.2-0.8,0.2c-0.7,0-1.2-0.3-1.5-0.8c-0.3-0.5-0.5-1.4-0.5-2.5v-4.2c0-0.4,0-0.7,0-1
		c0-0.3,0.1-0.5,0.2-0.6c0.1-0.1,0.2-0.3,0.4-0.3c0.2-0.1,0.3-0.1,0.6-0.2c0-0.2,0.1-0.4,0.1-0.6c0-0.2,0-0.5,0-0.8
		c-0.1,0-0.4,0-0.7,0c-0.3,0-0.7,0-1,0c-0.4,0-0.8,0-1.1,0h-0.9c-0.5,0-1,0-1.4,0c-0.5,0-0.8,0-1,0c0,0.5,0,1,0.1,1.4
		c0.2,0,0.4,0.1,0.6,0.2c0.2,0.1,0.3,0.2,0.4,0.3c0.1,0.1,0.2,0.3,0.2,0.6s0.1,0.6,0.1,1v4.5c0,0.8,0.1,1.5,0.2,2.1
		c0.2,0.6,0.4,1,0.8,1.4c0.4,0.4,0.9,0.6,1.5,0.8c0.6,0.2,1.4,0.3,2.3,0.3c0.7,0,1.3-0.1,1.9-0.2c0.5-0.1,1-0.4,1.4-0.7
		c0.4-0.4,0.7-1,0.9-1.6c0.2-0.7,0.2-1.5,0.2-2.6V19.8z M54.6,25.1c0,0.4,0,0.8,0,1c0,0.3-0.1,0.5-0.2,0.6c-0.1,0.1-0.2,0.2-0.4,0.3
		c-0.2,0.1-0.3,0.1-0.6,0.1c0,0.2-0.1,0.4-0.1,0.7c0,0.3-0.1,0.5-0.1,0.7c0.4,0,0.9,0,1.6,0s1.2,0,1.9,0s1.2,0,1.7,0
		c0.5,0,0.9,0,1.2,0c0-0.2,0-0.5,0-0.8c0-0.3-0.1-0.5-0.1-0.7c-0.2,0-0.4,0-0.6-0.1c-0.2-0.1-0.3-0.2-0.4-0.3
		c-0.1-0.1-0.2-0.3-0.2-0.6c0-0.3,0-0.6,0-1v-2c0.6,0.8,1.2,1.5,1.6,2.3c0.6,1.1,1.2,2.2,1.8,3.3c0.2,0,0.6-0.1,1-0.1s0.9,0,1.3,0
		c0.5,0,0.9,0,1.3,0c0.4,0,0.7,0,1,0c0.1-0.2,0.2-0.4,0.2-0.6c0-0.2,0-0.5,0-0.8c-0.5,0-0.9-0.2-1.2-0.5c-0.4-0.3-0.7-0.7-1.1-1.4
		c-0.5-0.8-1-1.5-1.5-2.3c-0.5-0.7-1-1.4-1.6-2.1l1.9-2c0.4-0.4,0.8-0.8,1.3-1c0.4-0.2,0.8-0.3,1.3-0.4c0.1-0.2,0.1-0.4,0.1-0.7
		c0-0.3,0.1-0.5,0.1-0.7c-0.1,0-0.3,0-0.5,0s-0.5,0-0.8,0c-0.3,0-0.6,0-0.8,0h-0.7c-0.4,0-0.7,0-1.1,0c-0.4,0-0.7,0-0.9,0
		c0,0.2,0,0.5,0,0.7c0,0.3,0.1,0.5,0.1,0.7c0.2,0,0.3,0.1,0.4,0.1c0.1,0.1,0.1,0.2,0.1,0.3c0,0.1-0.1,0.3-0.2,0.5
		c-0.1,0.2-0.3,0.4-0.6,0.7l-2.5,2.4v-2.1c0-0.4,0-0.7,0-1c0-0.2,0.1-0.4,0.2-0.6c0.1-0.1,0.2-0.2,0.4-0.3c0.2-0.1,0.4-0.1,0.6-0.1
		c0.1-0.2,0.1-0.5,0.1-0.7c0-0.2,0-0.5,0-0.7c-0.2,0-0.4,0-0.7,0c-0.3,0-0.5,0-0.8,0c-0.3,0-0.6,0-0.8,0h-1.5c-0.3,0-0.6,0-0.9,0
		c-0.3,0-0.6,0-0.9,0s-0.5,0-0.6,0c0,0.2,0,0.5,0,0.8c0,0.3,0.1,0.5,0.1,0.7c0.3,0,0.5,0.1,0.6,0.1c0.2,0.1,0.3,0.2,0.4,0.3
		c0.1,0.1,0.1,0.3,0.2,0.6c0,0.2,0,0.6,0,1V25.1z"/>
</g>
</svg>
