<?xml version="1.0" encoding="utf-8"?>
<!-- Generator: Adobe Illustrator 20.1.0, SVG Export Plug-In . SVG Version: 6.00 Build 0)  -->
<svg version="1.1" id="Layer_1" xmlns="http://www.w3.org/2000/svg" xmlns:xlink="http://www.w3.org/1999/xlink" x="0px" y="0px"
	 viewBox="0 0 215.3 43.3" style="enable-background:new 0 0 215.3 43.3;" xml:space="preserve">
<style type="text/css">
	.st0{fill:#01684A;}
	.st1{fill:#FFFFFF;}
</style>
<g>
	<path class="st0" d="M8,0c0,0-8,0-8,8v27.3c0,0,0,8,8,8h199.3c0,0,8,0,8-8V8c0,0,0-8-8-8H8z"/>
	<path class="st1" d="M178,25.4c-0.4,0.3-0.6,0.8-0.6,1.3s0.2,1,0.5,1.3c0.3,0.3,0.8,0.5,1.4,0.5c0.6,0,1.1-0.2,1.4-0.6
		c0.3-0.4,0.5-0.8,0.5-1.4c0-0.2,0-0.4-0.1-0.6c-0.1-0.2-0.2-0.4-0.4-0.5c-0.2-0.2-0.3-0.3-0.6-0.4s-0.5-0.1-0.7-0.1
		C178.9,25,178.4,25.1,178,25.4 M177.4,15.7c-0.6,0.2-1.1,0.4-1.6,0.6c0,0.4,0.1,0.8,0.1,1.3c0,0.5,0,0.9-0.1,1.3
		c0.3,0.1,0.5,0.3,0.8,0.3c0.3,0.1,0.6,0.1,1,0.1c0-0.5,0.1-0.9,0.2-1.2c0.1-0.3,0.2-0.6,0.2-0.7c0.1-0.2,0.2-0.3,0.3-0.4
		c0.1-0.1,0.2-0.1,0.3-0.1c0.2,0,0.4,0.1,0.6,0.3c0.2,0.2,0.2,0.5,0.2,0.9c0,0.4-0.1,0.8-0.3,1.1c-0.2,0.3-0.4,0.5-0.7,0.8
		s-0.5,0.5-0.7,0.9c-0.2,0.3-0.3,0.8-0.3,1.3c0,0.5,0.1,0.9,0.3,1.4c0.2,0.4,0.5,0.8,0.8,0.9c0.3,0,0.6,0,0.9-0.1
		c0.3-0.1,0.6-0.1,0.8-0.3c-0.1-0.3-0.2-0.5-0.2-0.8c0-0.2-0.1-0.5-0.1-0.8c0-0.4,0.1-0.7,0.2-1c0.1-0.3,0.3-0.5,0.5-0.7
		c0.2-0.2,0.5-0.4,0.7-0.6c0.3-0.2,0.5-0.4,0.7-0.7c0.2-0.2,0.4-0.5,0.5-0.8c0.1-0.3,0.2-0.7,0.2-1.1c0-0.7-0.3-1.2-0.8-1.6
		c-0.5-0.4-1.4-0.6-2.6-0.6C178.7,15.4,178,15.5,177.4,15.7 M168.3,25.1c0,0.4,0,0.8,0,1c0,0.3-0.1,0.5-0.2,0.6
		c-0.1,0.1-0.2,0.2-0.4,0.3c-0.2,0.1-0.3,0.1-0.6,0.1c0,0.2-0.1,0.4-0.1,0.7c0,0.3-0.1,0.5-0.1,0.7c0.4,0,0.9,0,1.6,0
		c0.6,0,1.2,0,1.9,0c0.6,0,1.2,0,1.7,0s0.9,0,1.2,0c0-0.2,0-0.5,0-0.8c0-0.3-0.1-0.5-0.1-0.7c-0.2,0-0.4,0-0.6-0.1
		c-0.2-0.1-0.3-0.2-0.4-0.3c-0.1-0.1-0.2-0.3-0.2-0.6c0-0.3,0-0.6,0-1v-5.5c0-0.4,0-0.7,0-1c0-0.2,0.1-0.4,0.2-0.6
		c0.1-0.1,0.2-0.2,0.4-0.3c0.2-0.1,0.4-0.1,0.6-0.1c0.1-0.2,0.1-0.5,0.1-0.7c0-0.2,0-0.5,0-0.7c-0.2,0-0.4,0-0.7,0s-0.5,0-0.8,0
		s-0.6,0-0.8,0h-1.5c-0.3,0-0.6,0-0.9,0c-0.3,0-0.6,0-0.9,0c-0.3,0-0.5,0-0.6,0c0,0.2,0,0.5,0,0.8s0.1,0.5,0.1,0.7
		c0.3,0,0.5,0.1,0.6,0.1c0.2,0.1,0.3,0.2,0.4,0.3c0.1,0.1,0.1,0.3,0.2,0.6c0,0.2,0,0.6,0,1V25.1z M160.1,16.3
		c-0.5,0.2-1,0.4-1.3,0.7c-0.4,0.3-0.7,0.7-0.9,1.1c-0.2,0.4-0.3,0.9-0.3,1.5c0,0.8,0.1,1.5,0.4,2c0.3,0.5,0.6,1,1,1.3
		c0.4,0.4,0.9,0.6,1.3,0.9c0.5,0.2,0.9,0.4,1.3,0.6c0.4,0.2,0.8,0.4,1,0.6c0.3,0.2,0.4,0.5,0.4,0.9c0,0.4-0.1,0.7-0.4,0.9
		c-0.3,0.2-0.7,0.3-1.1,0.3c-0.4,0-0.6,0-0.9-0.1c-0.2-0.1-0.4-0.2-0.5-0.4c-0.1-0.2-0.2-0.5-0.3-0.9c-0.1-0.4-0.1-0.8-0.2-1.4
		c-0.4,0-0.7,0-1.1,0c-0.4,0-0.7,0.1-1.1,0.2c0,0.5,0,1,0,1.5c0,0.5-0.1,1-0.2,1.6c0.3,0.2,0.6,0.3,0.9,0.5c0.3,0.1,0.6,0.2,0.9,0.3
		c0.3,0.1,0.6,0.1,1,0.2c0.4,0,0.8,0.1,1.3,0.1c0.7,0,1.3-0.1,1.9-0.3c0.6-0.2,1.1-0.4,1.5-0.8c0.4-0.3,0.8-0.7,1-1.2
		c0.2-0.5,0.4-1,0.4-1.6c0-0.7-0.1-1.3-0.4-1.8c-0.3-0.5-0.7-0.9-1.1-1.2c-0.4-0.3-0.9-0.6-1.4-0.8c-0.5-0.2-1-0.4-1.4-0.7
		c-0.4-0.2-0.8-0.5-1.1-0.7c-0.3-0.3-0.4-0.6-0.4-1c0-0.4,0.1-0.7,0.4-0.8c0.3-0.2,0.5-0.3,0.9-0.3c0.3,0,0.5,0,0.7,0.1
		c0.2,0.1,0.4,0.2,0.6,0.4c0.2,0.2,0.3,0.4,0.4,0.8c0.1,0.3,0.2,0.7,0.3,1.2c0.3,0,0.7,0,1.1-0.1c0.4-0.1,0.7-0.2,1-0.3
		c0-0.3-0.1-0.7-0.1-1.3c0-0.5,0-1.1,0-1.6c-0.3-0.2-0.8-0.3-1.4-0.5c-0.6-0.1-1.3-0.2-2.1-0.2C161.1,16,160.6,16.1,160.1,16.3
		 M155.1,19.8c0-0.4,0-0.8,0-1c0-0.3,0.1-0.5,0.2-0.7c0.1-0.2,0.2-0.3,0.3-0.4c0.1-0.1,0.3-0.1,0.6-0.2c0.1-0.2,0.1-0.4,0.1-0.7
		c0-0.2,0-0.5,0-0.8c-0.2,0-0.5,0-0.9,0s-0.7,0-1.1,0H154c-0.2,0-0.4,0-0.6,0c-0.2,0-0.4,0-0.6,0c-0.2,0-0.3,0-0.4,0
		c0,0.5,0,0.9,0.1,1.4c0.2,0,0.4,0.1,0.6,0.2c0.2,0.1,0.3,0.2,0.4,0.4c0.1,0.2,0.2,0.4,0.2,0.7c0,0.3,0.1,0.7,0.1,1.1v3.3
		c0,0.9,0,1.6-0.1,2.1c-0.1,0.5-0.2,0.8-0.4,1c-0.2,0.3-0.4,0.5-0.7,0.6c-0.3,0.1-0.6,0.2-0.8,0.2c-0.7,0-1.2-0.3-1.5-0.8
		c-0.3-0.5-0.5-1.4-0.5-2.5v-4.2c0-0.4,0-0.7,0-1s0.1-0.5,0.2-0.6c0.1-0.1,0.2-0.3,0.4-0.3c0.2-0.1,0.3-0.1,0.6-0.2
		c0-0.2,0.1-0.4,0.1-0.6c0-0.2,0-0.5,0-0.8c-0.1,0-0.4,0-0.7,0c-0.3,0-0.7,0-1,0s-0.8,0-1.1,0h-0.9c-0.5,0-1,0-1.4,0
		c-0.5,0-0.8,0-1,0c0,0.5,0,1,0.1,1.4c0.2,0,0.4,0.1,0.6,0.2c0.2,0.1,0.3,0.2,0.4,0.3c0.1,0.1,0.2,0.3,0.2,0.6c0,0.3,0.1,0.6,0.1,1
		v4.5c0,0.8,0.1,1.5,0.2,2.1c0.2,0.6,0.4,1,0.8,1.4c0.4,0.4,0.9,0.6,1.5,0.8c0.6,0.2,1.4,0.3,2.3,0.3c0.7,0,1.3-0.1,1.9-0.2
		s1-0.4,1.4-0.7c0.4-0.4,0.7-1,0.9-1.6c0.2-0.7,0.2-1.5,0.2-2.6V19.8z M131,16.2c-0.2,0-0.5,0-0.7,0h-1.1c-0.2,0-0.5,0-0.7,0
		c-0.2,0-0.5,0-0.7,0c-0.2,0-0.4,0-0.5,0c0,0.3,0,0.5,0,0.8c0,0.2,0.1,0.4,0.1,0.7c0.3,0,0.5,0,0.6,0.1c0.2,0.1,0.3,0.2,0.4,0.3
		c0.1,0.2,0.1,0.4,0.1,0.6c0,0.3,0,0.6,0,1.1l-0.4,4.4c-0.1,0.6-0.1,1.1-0.2,1.5c-0.1,0.4-0.2,0.7-0.3,0.9c-0.1,0.2-0.3,0.4-0.4,0.5
		c-0.2,0.1-0.4,0.2-0.6,0.2c-0.1,0.2-0.1,0.4-0.1,0.7c0,0.2,0,0.5,0,0.8c0.1,0,0.2,0,0.4,0c0.2,0,0.4,0,0.6,0c0.2,0,0.4,0,0.7,0
		c0.2,0,0.4,0,0.6,0c0.4,0,0.8,0,1.2,0c0.4,0,0.7,0,0.8,0c0-0.3,0-0.5,0-0.8c0-0.2-0.1-0.5-0.1-0.7c-0.3,0-0.5-0.1-0.6-0.2
		c-0.2-0.1-0.3-0.2-0.4-0.5c-0.1-0.2-0.1-0.5-0.1-0.9c0-0.4,0-0.9,0.1-1.6l0.4-4.1l3.8,8.7c0.2,0,0.5,0,0.7,0c0.3,0,0.5-0.1,0.6-0.1
		l3.4-8.6l0.5,5c0,0.5,0.1,0.9,0.1,1.1c0,0.3,0,0.5-0.1,0.7c-0.1,0.2-0.2,0.3-0.3,0.3c-0.2,0.1-0.4,0.1-0.7,0.1
		c0,0.2-0.1,0.4-0.1,0.6c0,0.2,0,0.5,0,0.8c0.1,0,0.3,0,0.5,0c0.2,0,0.5,0,0.7,0c0.3,0,0.5,0,0.8,0c0.3,0,0.5,0,0.7,0h0.9
		c0.4,0,0.7,0,1.1,0c0.4,0,0.7,0,1,0c0.3,0,0.5,0,0.6,0c0-0.6,0-1-0.1-1.4c-0.2,0-0.4-0.1-0.6-0.1c-0.2-0.1-0.3-0.2-0.4-0.3
		c-0.1-0.2-0.2-0.4-0.2-0.7c-0.1-0.3-0.1-0.7-0.2-1.3l-0.5-5c0-0.4,0-0.7,0-1c0-0.3,0.1-0.5,0.1-0.7c0.1-0.2,0.2-0.3,0.4-0.3
		c0.2-0.1,0.4-0.1,0.7-0.1c0.1-0.2,0.1-0.4,0.1-0.7c0-0.3,0-0.5,0-0.8c-0.1,0-0.3,0-0.5,0c-0.2,0-0.4,0-0.7,0c-0.2,0-0.5,0-0.7,0
		h-1.1c-0.2,0-0.5,0-0.7,0s-0.5,0-0.7,0c-0.2,0-0.4,0-0.6,0l-2.8,7.8l-3.3-7.8c-0.1,0-0.3,0-0.5,0C131.5,16.2,131.3,16.2,131,16.2
		 M120.6,25.1c0,0.4,0,0.8,0,1c0,0.3-0.1,0.5-0.2,0.6c-0.1,0.1-0.2,0.2-0.4,0.3c-0.2,0.1-0.3,0.1-0.6,0.1c0,0.2-0.1,0.4-0.1,0.7
		c0,0.3-0.1,0.5-0.1,0.7c0.4,0,0.9,0,1.6,0c0.6,0,1.2,0,1.9,0c0.6,0,1.2,0,1.7,0c0.5,0,0.9,0,1.2,0c0-0.2,0-0.5,0-0.8
		c0-0.3-0.1-0.5-0.1-0.7c-0.2,0-0.4,0-0.6-0.1c-0.2-0.1-0.3-0.2-0.4-0.3c-0.1-0.1-0.2-0.3-0.2-0.6c0-0.3,0-0.6,0-1v-5.5
		c0-0.4,0-0.7,0-1c0-0.2,0.1-0.4,0.2-0.6c0.1-0.1,0.2-0.2,0.4-0.3c0.2-0.1,0.4-0.1,0.6-0.1c0.1-0.2,0.1-0.5,0.1-0.7
		c0-0.2,0-0.5,0-0.7c-0.2,0-0.4,0-0.7,0s-0.5,0-0.8,0s-0.6,0-0.8,0h-1.5c-0.3,0-0.6,0-0.9,0c-0.3,0-0.6,0-0.9,0c-0.3,0-0.5,0-0.6,0
		c0,0.2,0,0.5,0,0.8s0.1,0.5,0.1,0.7c0.3,0,0.5,0.1,0.6,0.1c0.2,0.1,0.3,0.2,0.4,0.3c0.1,0.1,0.1,0.3,0.2,0.6c0,0.2,0,0.6,0,1V25.1z
		 M112.4,16.3c-0.5,0.2-1,0.4-1.3,0.7c-0.4,0.3-0.7,0.7-0.9,1.1c-0.2,0.4-0.3,0.9-0.3,1.5c0,0.8,0.1,1.5,0.4,2c0.3,0.5,0.6,1,1,1.3
		c0.4,0.4,0.9,0.6,1.3,0.9c0.5,0.2,0.9,0.4,1.3,0.6c0.4,0.2,0.8,0.4,1,0.6c0.3,0.2,0.4,0.5,0.4,0.9c0,0.4-0.1,0.7-0.4,0.9
		c-0.3,0.2-0.7,0.3-1.1,0.3c-0.4,0-0.6,0-0.9-0.1c-0.2-0.1-0.4-0.2-0.5-0.4c-0.1-0.2-0.2-0.5-0.3-0.9c-0.1-0.4-0.1-0.8-0.2-1.4
		c-0.4,0-0.7,0-1.1,0c-0.4,0-0.7,0.1-1.1,0.2c0,0.5,0,1,0,1.5c0,0.5-0.1,1-0.2,1.6c0.3,0.2,0.6,0.3,0.9,0.5c0.3,0.1,0.6,0.2,0.9,0.3
		c0.3,0.1,0.6,0.1,1,0.2c0.4,0,0.8,0.1,1.3,0.1c0.7,0,1.3-0.1,1.9-0.3c0.6-0.2,1.1-0.4,1.5-0.8c0.4-0.3,0.8-0.7,1-1.2
		c0.2-0.5,0.4-1,0.4-1.6c0-0.7-0.1-1.3-0.4-1.8c-0.3-0.5-0.7-0.9-1.1-1.2c-0.4-0.3-0.9-0.6-1.4-0.8c-0.5-0.2-1-0.4-1.4-0.7
		c-0.4-0.2-0.8-0.5-1.1-0.7c-0.3-0.3-0.4-0.6-0.4-1c0-0.4,0.1-0.7,0.4-0.8c0.3-0.2,0.5-0.3,0.9-0.3c0.3,0,0.5,0,0.7,0.1
		c0.2,0.1,0.4,0.2,0.6,0.4c0.2,0.2,0.3,0.4,0.4,0.8c0.1,0.3,0.2,0.7,0.3,1.2c0.3,0,0.7,0,1.1-0.1c0.4-0.1,0.7-0.2,1-0.3
		c0-0.3-0.1-0.7-0.1-1.3c0-0.5,0-1.1,0-1.6c-0.3-0.2-0.8-0.3-1.4-0.5c-0.6-0.1-1.3-0.2-2.1-0.2C113.5,16,112.9,16.1,112.4,16.3
		 M104.3,12.5c-0.3,0.3-0.5,0.6-0.5,1.1c0,0.5,0.2,0.9,0.5,1.2c0.3,0.3,0.8,0.5,1.4,0.5c0.3,0,0.6,0,0.8-0.1
		c0.2-0.1,0.4-0.2,0.5-0.4c0.1-0.2,0.2-0.3,0.3-0.5c0.1-0.2,0.1-0.4,0.1-0.6c0-0.4-0.2-0.8-0.5-1c-0.3-0.3-0.8-0.4-1.3-0.4
		C105,12.1,104.6,12.3,104.3,12.5 M102.2,14.8c0.3-0.3,0.5-0.6,0.5-1.1c0-0.5-0.1-0.8-0.4-1.1c-0.3-0.3-0.7-0.5-1.3-0.5
		c-0.3,0-0.6,0-0.8,0.1c-0.2,0.1-0.4,0.2-0.5,0.4c-0.1,0.2-0.2,0.3-0.3,0.5c-0.1,0.2-0.1,0.4-0.1,0.6c0,0.4,0.2,0.7,0.5,1
		c0.3,0.3,0.7,0.4,1.3,0.4C101.4,15.2,101.9,15.1,102.2,14.8 M107.4,19.8c0-0.4,0-0.8,0-1s0.1-0.5,0.2-0.7c0.1-0.2,0.2-0.3,0.3-0.4
		c0.1-0.1,0.3-0.1,0.6-0.2c0.1-0.2,0.1-0.4,0.1-0.7c0-0.2,0-0.5,0-0.8c-0.2,0-0.5,0-0.9,0c-0.4,0-0.7,0-1.1,0h-0.5
		c-0.2,0-0.4,0-0.6,0c-0.2,0-0.4,0-0.6,0c-0.2,0-0.3,0-0.4,0c0,0.5,0,0.9,0.1,1.4c0.2,0,0.4,0.1,0.6,0.2c0.2,0.1,0.3,0.2,0.4,0.4
		c0.1,0.2,0.2,0.4,0.2,0.7c0,0.3,0.1,0.7,0.1,1.1v3.3c0,0.9,0,1.6-0.1,2.1c-0.1,0.5-0.2,0.8-0.4,1c-0.2,0.3-0.4,0.5-0.7,0.6
		c-0.3,0.1-0.6,0.2-0.8,0.2c-0.7,0-1.2-0.3-1.5-0.8c-0.3-0.5-0.5-1.4-0.5-2.5v-4.2c0-0.4,0-0.7,0-1c0-0.3,0.1-0.5,0.2-0.6
		c0.1-0.1,0.2-0.3,0.4-0.3c0.2-0.1,0.3-0.1,0.6-0.2c0-0.2,0.1-0.4,0.1-0.6c0-0.2,0-0.5,0-0.8c-0.1,0-0.4,0-0.7,0c-0.3,0-0.7,0-1,0
		s-0.7,0-1.1,0h-0.9c-0.5,0-1,0-1.4,0c-0.5,0-0.8,0-1,0c0,0.5,0,1,0.1,1.4c0.2,0,0.4,0.1,0.6,0.2c0.2,0.1,0.3,0.2,0.4,0.3
		c0.1,0.1,0.2,0.3,0.2,0.6c0,0.3,0.1,0.6,0.1,1v4.5c0,0.8,0.1,1.5,0.2,2.1c0.2,0.6,0.4,1,0.8,1.4c0.4,0.4,0.9,0.6,1.5,0.8
		c0.6,0.2,1.4,0.3,2.3,0.3c0.7,0,1.3-0.1,1.9-0.2c0.5-0.1,1-0.4,1.4-0.7c0.4-0.4,0.7-1,0.9-1.6c0.2-0.7,0.2-1.5,0.2-2.6V19.8z
		 M85.1,25.1c0,0.4,0,0.8,0,1c0,0.3-0.1,0.5-0.2,0.6s-0.2,0.2-0.4,0.3c-0.2,0.1-0.3,0.1-0.6,0.1c0,0.2-0.1,0.4-0.1,0.7
		c0,0.3-0.1,0.5-0.1,0.7c0.4,0,0.9,0,1.6,0c0.6,0,1.2,0,1.9,0c0.6,0,1.2,0,1.7,0c0.5,0,0.9,0,1.2,0c0-0.2,0-0.5,0-0.8
		c0-0.3-0.1-0.5-0.1-0.7c-0.2,0-0.4,0-0.6-0.1c-0.2-0.1-0.3-0.2-0.4-0.3s-0.2-0.3-0.2-0.6c0-0.3,0-0.6,0-1v-2
		c0.6,0.8,1.2,1.5,1.6,2.3c0.6,1.1,1.2,2.2,1.8,3.3c0.2,0,0.6-0.1,1-0.1c0.4,0,0.9,0,1.3,0c0.5,0,0.9,0,1.3,0c0.4,0,0.7,0,1,0
		c0.1-0.2,0.2-0.4,0.2-0.6c0-0.2,0-0.5,0-0.8c-0.5,0-0.9-0.2-1.2-0.5c-0.4-0.3-0.7-0.7-1.1-1.4c-0.5-0.8-1-1.5-1.5-2.3
		c-0.5-0.7-1-1.4-1.6-2.1l1.9-2c0.4-0.4,0.8-0.8,1.3-1c0.4-0.2,0.8-0.3,1.3-0.4c0.1-0.2,0.1-0.4,0.1-0.7c0-0.3,0.1-0.5,0.1-0.7
		c-0.1,0-0.3,0-0.5,0s-0.5,0-0.8,0c-0.3,0-0.6,0-0.8,0h-0.7c-0.4,0-0.7,0-1.1,0s-0.7,0-0.9,0c0,0.2,0,0.5,0,0.7
		c0,0.3,0.1,0.5,0.1,0.7c0.2,0,0.3,0.1,0.4,0.1c0.1,0.1,0.1,0.2,0.1,0.3c0,0.1-0.1,0.3-0.2,0.5c-0.1,0.2-0.3,0.4-0.6,0.7l-2.4,2.4
		v-2.1c0-0.4,0-0.7,0-1c0-0.2,0.1-0.4,0.2-0.6c0.1-0.1,0.2-0.2,0.4-0.3c0.2-0.1,0.4-0.1,0.6-0.1c0.1-0.2,0.1-0.5,0.1-0.7
		c0-0.2,0-0.5,0-0.7c-0.2,0-0.4,0-0.7,0c-0.3,0-0.5,0-0.8,0c-0.3,0-0.6,0-0.8,0h-1.5c-0.3,0-0.6,0-0.9,0c-0.3,0-0.6,0-0.9,0
		s-0.5,0-0.6,0c0,0.2,0,0.5,0,0.8c0,0.3,0.1,0.5,0.1,0.7c0.3,0,0.5,0.1,0.6,0.1c0.2,0.1,0.3,0.2,0.4,0.3c0.1,0.1,0.1,0.3,0.2,0.6
		c0,0.2,0,0.6,0,1V25.1z M74.9,27.1c-0.3,0-0.5,0-0.7-0.1c-0.2-0.1-0.3-0.2-0.4-0.3s-0.2-0.4-0.2-0.6c0-0.3-0.1-0.6-0.1-1v-5.4
		c0-0.4,0-0.7,0-1c0-0.2,0.1-0.4,0.2-0.6c0.1-0.1,0.2-0.2,0.4-0.3c0.2-0.1,0.4-0.1,0.6-0.1c0.1-0.2,0.1-0.4,0.1-0.7
		c0-0.3,0-0.5,0-0.7c-0.2,0-0.4,0-0.7,0c-0.3,0-0.6,0-0.8,0c-0.3,0-0.6,0-0.9,0h-1.7c-0.3,0-0.5,0-0.7,0c-0.2,0-0.5,0-0.7,0
		c-0.2,0-0.5,0-0.8,0c0,0.2,0,0.4,0,0.7c0,0.3,0.1,0.5,0.1,0.7c0.3,0,0.5,0.1,0.6,0.1c0.2,0.1,0.3,0.2,0.4,0.3
		c0.1,0.1,0.2,0.3,0.2,0.6c0,0.2,0,0.6,0,1v5.5c0,0.4,0,0.8,0,1c0,0.3-0.1,0.5-0.2,0.6c-0.1,0.1-0.2,0.2-0.4,0.3
		c-0.2,0.1-0.4,0.1-0.6,0.1c0,0.2-0.1,0.4-0.1,0.6c0,0.3,0,0.5,0,0.8c0.2,0,0.6,0,1,0c0.5,0,1,0,1.6,0c0.6,0,1.1,0,1.7,0
		c0.5,0,1,0,1.3,0h1.2c0.4,0,0.9,0,1.3,0c0.4,0,0.8,0,1.2,0c0.4,0,0.7,0,1,0c0-0.6,0.1-1.2,0.2-1.8c0.1-0.6,0.2-1.1,0.3-1.5
		c-0.2-0.1-0.4-0.3-0.7-0.4c-0.3-0.1-0.7-0.2-1.1-0.2c-0.2,0.9-0.5,1.5-0.9,1.9c-0.4,0.4-0.8,0.6-1.5,0.6H74.9z M65.8,16.2
		c-0.3,0-0.7,0-1,0c-0.4,0-0.8,0-1.4,0h-3c-0.4,0-0.9,0-1.3,0c-0.4,0-0.9,0-1.3,0c-0.4,0-0.7,0-1,0c0,0.2,0,0.4,0,0.7
		c0,0.3,0.1,0.5,0.1,0.7c0.3,0,0.5,0.1,0.6,0.1c0.2,0.1,0.3,0.2,0.4,0.3c0.1,0.1,0.2,0.3,0.2,0.6c0,0.2,0,0.6,0,1v5.5
		c0,0.4,0,0.8,0,1c0,0.3-0.1,0.5-0.2,0.6c-0.1,0.1-0.2,0.2-0.4,0.3c-0.2,0.1-0.4,0.1-0.6,0.1c0,0.2-0.1,0.4-0.1,0.6
		c0,0.3,0,0.5,0,0.8c0.2,0,0.6,0,1,0c0.5,0,1,0,1.6,0c0.6,0,1.1,0,1.7,0c0.5,0,1,0,1.3,0h1.2c0.4,0,0.9,0,1.3,0c0.4,0,0.8,0,1.2,0
		c0.4,0,0.7,0,1,0c0-0.6,0.1-1.2,0.2-1.8c0.1-0.6,0.2-1.1,0.3-1.5c-0.2-0.1-0.4-0.3-0.7-0.4c-0.3-0.1-0.7-0.2-1.1-0.2
		c-0.2,0.9-0.5,1.5-0.9,1.9c-0.4,0.4-0.8,0.6-1.5,0.6h-0.3c-0.3,0-0.5,0-0.7-0.1c-0.2-0.1-0.3-0.2-0.4-0.3c-0.1-0.2-0.2-0.4-0.2-0.6
		c0-0.3-0.1-0.6-0.1-1V23c0.5,0,0.9,0.1,1.1,0.2c0.2,0.2,0.3,0.5,0.4,1c0.2,0.1,0.4,0.1,0.7,0.1c0.2,0,0.5,0,0.9,0
		c0-0.3,0-0.6-0.1-0.9c0-0.3,0-0.8,0-1.3c0-0.5,0-0.9,0-1.2c0-0.3,0-0.6,0.1-0.9c-0.3,0-0.6,0-0.9,0c-0.3,0-0.5,0.1-0.7,0.2
		c0,0.2,0,0.4-0.1,0.6c0,0.2-0.1,0.3-0.2,0.4s-0.3,0.2-0.4,0.2c-0.2,0-0.4,0.1-0.7,0.1v-4.1h0.9c0.4,0,0.8,0.1,1.1,0.2
		c0.3,0.1,0.5,0.2,0.7,0.4c0.2,0.2,0.3,0.4,0.4,0.7c0.1,0.3,0.2,0.6,0.2,0.9c0.4,0,0.8,0,1.1-0.1c0.3-0.1,0.5-0.1,0.8-0.2
		c-0.1-0.2-0.1-0.5-0.2-0.7c0-0.3-0.1-0.6-0.1-0.9c0-0.3-0.1-0.6-0.1-0.9c0-0.3,0-0.5,0-0.8C66.3,16.1,66.1,16.2,65.8,16.2 M54,16.2
		c-0.3,0-0.7,0-1,0c-0.4,0-0.8,0-1.4,0h-3c-0.4,0-0.9,0-1.3,0c-0.4,0-0.9,0-1.3,0c-0.4,0-0.7,0-1,0c0,0.2,0,0.4,0,0.7
		c0,0.3,0.1,0.5,0.1,0.7c0.3,0,0.5,0.1,0.6,0.1c0.2,0.1,0.3,0.2,0.4,0.3c0.1,0.1,0.2,0.3,0.2,0.6c0,0.2,0,0.6,0,1v5.5
		c0,0.4,0,0.8,0,1c0,0.3-0.1,0.5-0.2,0.6c-0.1,0.1-0.2,0.2-0.4,0.3c-0.2,0.1-0.4,0.1-0.6,0.1c0,0.2-0.1,0.4-0.1,0.6
		c0,0.3,0,0.5,0,0.8c0.2,0,0.6,0,1,0c0.5,0,1,0,1.6,0c0.6,0,1.1,0,1.7,0c0.5,0,1,0,1.3,0h1.2c0.4,0,0.9,0,1.3,0c0.4,0,0.8,0,1.2,0
		c0.4,0,0.7,0,1,0c0-0.6,0.1-1.2,0.2-1.8c0.1-0.6,0.2-1.1,0.3-1.5c-0.2-0.1-0.4-0.3-0.7-0.4c-0.3-0.1-0.7-0.2-1.1-0.2
		c-0.2,0.9-0.5,1.5-0.9,1.9c-0.4,0.4-0.8,0.6-1.5,0.6h-0.3c-0.3,0-0.5,0-0.7-0.1c-0.2-0.1-0.3-0.2-0.4-0.3s-0.2-0.4-0.2-0.6
		c0-0.3-0.1-0.6-0.1-1V23c0.5,0,0.9,0.1,1.1,0.2c0.2,0.2,0.3,0.5,0.4,1c0.2,0.1,0.4,0.1,0.7,0.1c0.2,0,0.5,0,0.9,0
		c0-0.3,0-0.6-0.1-0.9c0-0.3,0-0.8,0-1.3c0-0.5,0-0.9,0-1.2c0-0.3,0-0.6,0.1-0.9c-0.3,0-0.6,0-0.9,0c-0.3,0-0.5,0.1-0.7,0.2
		c0,0.2,0,0.4-0.1,0.6c0,0.2-0.1,0.3-0.2,0.4s-0.3,0.2-0.4,0.2c-0.2,0-0.4,0.1-0.7,0.1v-4.1h0.9c0.4,0,0.8,0.1,1.1,0.2
		c0.3,0.1,0.5,0.2,0.7,0.4c0.2,0.2,0.3,0.4,0.4,0.7c0.1,0.3,0.2,0.6,0.2,0.9c0.4,0,0.8,0,1.1-0.1c0.3-0.1,0.5-0.1,0.8-0.2
		c-0.1-0.2-0.1-0.5-0.2-0.7c0-0.3-0.1-0.6-0.1-0.9c0-0.3-0.1-0.6-0.1-0.9c0-0.3,0-0.5,0-0.8C54.6,16.1,54.3,16.2,54,16.2 M37.1,18.5
		C37,18.3,37,18.2,37,18c0-0.1,0.1-0.2,0.2-0.3c0.1-0.1,0.3-0.1,0.5-0.2c0-0.1,0.1-0.3,0.1-0.6c0-0.2,0-0.5,0-0.9
		c-0.3,0-0.6,0-0.9,0c-0.3,0-0.6,0-0.9,0c-0.3,0-0.5,0-0.8,0h-1.2c-0.3,0-0.5,0-0.8,0c-0.3,0-0.6,0-0.9,0c-0.3,0-0.5,0-0.6,0
		c0,0.6,0,1.1,0.1,1.4c0.1,0,0.3,0.1,0.4,0.1c0.1,0.1,0.2,0.2,0.3,0.3c0.1,0.2,0.3,0.4,0.4,0.6c0.1,0.3,0.3,0.6,0.5,1
		c0.7,1.4,1.4,2.8,2,4.3c0.7,1.5,1.3,3,2,4.6c0.3,0,0.6,0,0.9,0c0.3,0,0.6-0.1,0.8-0.1c0.6-1.6,1.2-3.1,1.8-4.6
		c0.6-1.5,1.1-3,1.7-4.5c0.1-0.3,0.2-0.6,0.3-0.8c0.1-0.2,0.2-0.4,0.3-0.5c0.1-0.1,0.2-0.2,0.4-0.3c0.1-0.1,0.3-0.1,0.4-0.2
		c0-0.2,0.1-0.4,0.1-0.6c0-0.2,0.1-0.5,0.1-0.8c-0.2,0-0.5,0-0.8,0c-0.4,0-0.7,0-1,0H42c-0.2,0-0.4,0-0.6,0c-0.2,0-0.4,0-0.5,0
		c-0.2,0-0.3,0-0.4,0c0,0.4,0,0.6,0,0.9c0,0.2,0.1,0.4,0.1,0.6c0.4,0.1,0.6,0.2,0.7,0.5c0.1,0.3,0.1,0.6,0,0.9
		c-0.2,0.6-0.4,1.2-0.5,1.7c-0.2,0.5-0.3,1-0.5,1.5c-0.2,0.5-0.4,1-0.5,1.5c-0.1,0.3-0.2,0.5-0.3,0.8c-0.1-0.3-0.2-0.6-0.3-0.8
		c-0.2-0.5-0.3-1-0.5-1.5c-0.2-0.5-0.4-0.9-0.6-1.4c-0.2-0.4-0.4-0.9-0.6-1.4C37.2,19,37.1,18.8,37.1,18.5"/>
</g>
</svg>
