<?xml version="1.0" encoding="utf-8"?>
<!-- Generator: Adobe Illustrator 20.1.0, SVG Export Plug-In . SVG Version: 6.00 Build 0)  -->
<svg version="1.1" id="Layer_1" xmlns="http://www.w3.org/2000/svg" xmlns:xlink="http://www.w3.org/1999/xlink" x="0px" y="0px"
	 viewBox="0 0 544 138.7" style="enable-background:new 0 0 544 138.7;" xml:space="preserve">
<style type="text/css">
	.st0{fill:#F4D408;}
	.st1{fill:#FFFFFF;}
</style>
<g>
	<path class="st0" d="M130.4,48.4c0,1.6-0.1,2.9-0.2,3.8c-0.1,1-0.3,1.7-0.6,2.2c-0.3,0.5-0.8,0.9-1.3,1.2c-0.6,0.2-1.3,0.4-2.2,0.4
		c-0.2,0.6-0.3,1.5-0.5,2.5c-0.1,1-0.2,2-0.2,2.8c1.6-0.1,3.5-0.1,5.8-0.2c2.3,0,4.6,0,7,0c2.4,0,4.5,0,6.4,0c1.9,0,3.4,0.1,4.4,0.2
		c0-0.9,0-1.9-0.1-2.9c-0.1-1-0.2-1.8-0.4-2.4c-0.9,0-1.7-0.2-2.2-0.4c-0.6-0.2-1.1-0.6-1.4-1.2s-0.6-1.3-0.7-2.2
		c-0.1-1-0.2-2.2-0.2-3.8V27.7c0-1.5,0.1-2.8,0.2-3.7c0.1-0.9,0.3-1.7,0.6-2.2c0.3-0.5,0.8-0.9,1.3-1.1c0.6-0.2,1.3-0.4,2.3-0.5
		c0.3-0.9,0.5-1.8,0.5-2.7c0-0.9,0.1-1.7,0.1-2.7c-0.7,0-1.5,0.1-2.5,0.1c-1,0-2,0-3.1,0.1c-1.1,0-2.1,0-3.2,0h-5.8
		c-1.1,0-2.3,0-3.5,0c-1.2,0-2.3,0-3.3-0.1c-1,0-1.8-0.1-2.4-0.1c0,0.9,0.1,1.8,0.2,2.8c0.1,1,0.3,1.8,0.4,2.5
		c1,0.1,1.7,0.3,2.3,0.5c0.6,0.2,1,0.6,1.3,1.1c0.3,0.5,0.5,1.2,0.6,2.1c0.1,0.9,0.2,2.1,0.2,3.7V48.4z M103.1,22.5
		c1.3,1.6,1.9,3.8,1.9,6.8c0,1.4-0.2,2.6-0.7,3.7c-0.5,1-1,1.9-1.8,2.6c-0.7,0.7-1.6,1.2-2.5,1.5c-1,0.3-1.9,0.5-2.9,0.5
		c-0.3,0-0.7,0-1-0.1c-0.2,0-0.6,0-1-0.1V20.6c0.9-0.3,1.9-0.5,2.9-0.5C100.1,20.1,101.8,20.9,103.1,22.5 M81.6,15.1
		c-2,0-3.7-0.1-5.1-0.2c0,0.2,0,0.6,0,1c0,0.5,0,0.9,0.1,1.5c0,0.5,0.1,1,0.1,1.5c0.1,0.5,0.1,0.9,0.2,1.2c1,0.1,1.7,0.3,2.3,0.5
		c0.6,0.2,1.1,0.6,1.4,1.1c0.3,0.5,0.6,1.2,0.7,2.1c0.1,0.9,0.2,2.1,0.2,3.7v20.8c0,1.6-0.1,2.9-0.2,3.8c-0.1,1-0.3,1.7-0.7,2.2
		s-0.8,0.9-1.4,1.2C78.7,55.9,78,56,77.1,56c-0.2,0.6-0.3,1.4-0.4,2.2c-0.1,0.9-0.1,1.9-0.1,3.1c1.6-0.1,3.3-0.1,5.1-0.2
		c1.8,0,3.6,0,5.5,0h2.9c1.1,0,2.2,0,3.3,0c1.1,0,2.2,0,3.2,0.1c1,0,1.8,0.1,2.5,0.1c0-1,0-2-0.1-3c-0.1-1-0.2-1.8-0.4-2.3
		c-0.6,0-1.2-0.1-1.6-0.3c-0.4-0.2-0.7-0.5-1-1.1c-0.3-0.6-0.5-1.4-0.6-2.5c-0.1-1.1-0.2-2.6-0.2-4.4v-4.2h0.5h1.5h0.6
		c0.3,0.2,0.6,0.5,0.9,0.7c0.5,0.5,1,1,1.4,1.6c0.4,0.6,0.8,1.4,1.2,2.3c0.4,0.9,0.8,2,1.3,3.2c0.7,1.7,1.4,3.5,2,5.3
		c0.6,1.8,1.2,3.5,1.7,5.1c1.2-0.2,3.2-0.3,6-0.4c2.8-0.1,6-0.1,9.6-0.1c0.5-1.7,0.7-3.5,0.7-5.4c-0.7,0-1.2-0.1-1.7-0.3
		c-0.5-0.2-0.9-0.4-1.3-0.7c-0.4-0.3-0.8-0.8-1.2-1.3c-0.4-0.5-0.8-1.3-1.2-2.2c-0.9-1.8-1.7-3.3-2.3-4.5c-0.6-1.2-1.3-2.1-1.9-2.8
		s-1.3-1.3-2-1.6c-0.4-0.2-0.8-0.4-1.3-0.6c0.7-0.2,1.3-0.4,2-0.7c1.5-0.7,2.8-1.6,3.9-2.9c1.1-1.2,2-2.7,2.6-4.5
		c0.6-1.7,1-3.8,1-6.1c0-1.7-0.3-3.4-1-4.9c-0.7-1.6-1.7-2.9-3.1-4.1c-1.4-1.2-3.1-2.1-5.3-2.8c-2.1-0.7-4.7-1-7.6-1
		c-2.9,0-5.7,0.1-8.3,0.2c-2.6,0.1-4.5,0.2-5.8,0.2C85.9,15.2,83.7,15.1,81.6,15.1 M56.5,1.4c-1.2,1-1.8,2.3-1.8,4
		c0,1.8,0.6,3.3,1.7,4.4c1.1,1.1,2.9,1.7,5.2,1.7c1.1,0,2.1-0.2,2.9-0.5c0.8-0.3,1.4-0.8,1.9-1.4c0.5-0.6,0.9-1.2,1.1-1.9
		c0.2-0.7,0.3-1.5,0.3-2.3c0-1.5-0.6-2.8-1.9-3.9c-1.2-1-2.8-1.6-4.7-1.6C59.3,0,57.8,0.5,56.5,1.4 M48.7,10c1.2-1.1,1.8-2.4,1.8-4
		c0-1.7-0.5-3.2-1.6-4.3c-1-1.1-2.7-1.7-5-1.7c-1.1,0-2.1,0.2-2.9,0.5c-0.8,0.3-1.5,0.8-2,1.4c-0.5,0.6-0.9,1.2-1.2,1.9
		c-0.2,0.7-0.4,1.5-0.4,2.3c0,1.5,0.6,2.8,1.8,3.8c1.2,1.1,2.8,1.6,4.8,1.6C46,11.6,47.5,11,48.7,10 M68.3,28.8
		c0-1.5,0.1-2.8,0.2-3.9c0.1-1,0.3-1.9,0.6-2.6c0.3-0.7,0.7-1.1,1.3-1.4c0.5-0.3,1.3-0.5,2.2-0.6c0.2-0.8,0.4-1.6,0.4-2.5
		c0.1-0.9,0.1-1.8,0.1-2.8c-0.9,0.1-2,0.1-3.3,0.2c-1.3,0-2.7,0-4,0h-1.8c-0.7,0-1.4,0-2.1,0c-0.7,0-1.4,0-2.1-0.1
		c-0.7,0-1.2-0.1-1.7-0.1c0,1.7,0.1,3.5,0.4,5.3c0.8,0.2,1.5,0.4,2.1,0.7c0.6,0.3,1.1,0.8,1.4,1.5s0.6,1.6,0.7,2.7s0.2,2.5,0.2,4.2
		v12.2c0,3.5-0.2,6.1-0.5,7.8s-0.8,3-1.4,3.9c-0.7,1-1.6,1.8-2.7,2.2c-1.1,0.5-2.1,0.7-3.2,0.7c-2.6,0-4.5-1-5.7-3.1
		c-1.2-2-1.9-5.2-1.9-9.5V28.1c0-1.5,0.1-2.8,0.2-3.8c0.1-1,0.3-1.7,0.6-2.3c0.3-0.5,0.8-0.9,1.3-1.2c0.6-0.2,1.3-0.4,2.2-0.6
		c0.2-0.8,0.3-1.6,0.3-2.4c0-0.8,0.1-1.8,0.1-2.9c-0.5,0-1.4,0.1-2.6,0.1c-1.2,0-2.5,0-3.9,0.1c-1.4,0-2.8,0-4.2,0h-3.4
		c-1.9,0-3.6,0-5.3,0c-1.7,0-3-0.1-3.9-0.2c0,2,0.2,3.8,0.5,5.3c0.9,0.1,1.6,0.3,2.2,0.6c0.6,0.2,1,0.6,1.4,1.2
		c0.3,0.5,0.6,1.3,0.7,2.2c0.1,1,0.2,2.2,0.2,3.8v16.8c0,3,0.3,5.6,0.9,7.7c0.6,2.1,1.6,3.9,3,5.2c1.4,1.4,3.3,2.4,5.6,3
		c2.3,0.6,5.2,1,8.6,1c2.6,0,4.9-0.3,6.9-0.8c2-0.5,3.7-1.5,5.1-2.8c1.6-1.6,2.7-3.6,3.2-6.2c0.6-2.5,0.9-5.7,0.9-9.7V28.8z
		 M20.7,28c0-1.4,0-2.6,0.1-3.5c0.1-1,0.2-1.7,0.5-2.3c0.3-0.6,0.7-1,1.3-1.3c0.6-0.3,1.4-0.5,2.4-0.5c0.2-0.8,0.4-1.6,0.5-2.4
		c0.1-0.9,0.1-1.8,0.1-2.9c-0.8,0-1.6,0.1-2.6,0.1c-1,0-2,0-3.1,0.1c-1.1,0-2.1,0-3.2,0h-6.1c-1,0-2.1,0-3.2,0c-1.1,0-2.1,0-3.1-0.1
		C3.6,15,2.8,15,2,15c0,0.8,0,1.7,0.1,2.8c0.1,1,0.2,1.9,0.5,2.6c1,0.1,1.7,0.2,2.3,0.5c0.6,0.2,1,0.6,1.3,1.1
		c0.3,0.5,0.5,1.3,0.6,2.2c0.1,1,0.2,2.3,0.2,3.8v29c0,2.4-0.1,4.4-0.4,6.1c-0.3,1.7-0.7,3.1-1.3,4.3s-1.3,2.3-2.2,3.2
		c-0.9,0.9-2,1.8-3.2,2.6c0.1,1,0.3,1.9,0.7,2.8c0.4,0.9,1,1.6,1.8,2.2c3.9-1.4,7-3,9.3-4.7c2.4-1.7,4.2-3.6,5.5-5.7
		c1.3-2.1,2.2-4.5,2.7-7.1c0.5-2.6,0.7-5.5,0.7-8.6V28z"/>
	<path class="st0" d="M258.6,92c-1.1,0-2.4,0-3.9,0.1c-1.5,0-3.2,0-5.1,0h-11.1c-1.6,0-3.3,0-5,0c-1.7,0-3.3,0-4.8-0.1
		c-1.5,0-2.8-0.1-3.8-0.1c0,0.8,0,1.7,0.1,2.7c0.1,1,0.2,1.9,0.4,2.6c1,0.1,1.7,0.3,2.3,0.5c0.6,0.2,1.1,0.6,1.4,1.1
		c0.3,0.5,0.6,1.2,0.7,2.1c0.1,0.9,0.2,2.1,0.2,3.7v20.7c0,1.6-0.1,2.9-0.2,3.8c-0.1,1-0.3,1.7-0.7,2.2c-0.3,0.5-0.8,0.9-1.4,1.2
		c-0.6,0.2-1.3,0.4-2.2,0.4c-0.2,0.6-0.3,1.4-0.4,2.4c-0.1,1-0.1,1.9-0.1,2.9c0.8,0,2.1,0,3.9,0c1.8,0,3.8,0,6-0.1
		c2.2,0,4.2,0,6.3-0.1c2,0,3.6,0,4.8,0h4.6c1.7,0,3.3,0,4.9,0c1.6,0,3.1,0,4.6,0.1c1.5,0,2.7,0,3.7,0c0.2-2.2,0.5-4.4,0.8-6.6
		c0.4-2.2,0.8-4,1.3-5.6c-0.6-0.5-1.5-1-2.8-1.5c-1.3-0.4-2.7-0.7-4.1-0.8c-0.9,3.3-2,5.6-3.4,7.1c-1.3,1.5-3.2,2.2-5.5,2.2h-1.2
		c-1,0-1.9-0.1-2.6-0.4c-0.7-0.2-1.2-0.7-1.6-1.3c-0.4-0.6-0.7-1.4-0.8-2.4c-0.2-1-0.2-2.3-0.2-3.9v-7.3c2,0,3.5,0.3,4.3,0.9
		c0.8,0.6,1.3,1.8,1.5,3.7c0.8,0.3,1.6,0.5,2.6,0.5c0.9,0.1,2,0.1,3.3,0.1c-0.1-1-0.2-2.1-0.2-3.4c0-1.2-0.1-2.8-0.1-4.7
		c0-1.7,0-3.2,0.1-4.5c0-1.2,0.1-2.4,0.2-3.5c-1,0-2.1,0.1-3.2,0.2c-1.1,0.1-2,0.3-2.8,0.6c0,0.9-0.1,1.7-0.3,2.3
		c-0.2,0.6-0.5,1.1-0.9,1.5c-0.4,0.4-1,0.6-1.7,0.8c-0.7,0.2-1.6,0.3-2.8,0.3V97.3h3.3c1.7,0,3.1,0.2,4.2,0.6c1.1,0.4,2,0.9,2.7,1.6
		c0.7,0.7,1.2,1.5,1.6,2.5c0.4,1,0.7,2.1,0.9,3.3c1.6,0,2.9-0.1,3.9-0.3c1-0.2,2-0.5,2.9-0.9c-0.2-0.8-0.4-1.7-0.6-2.8
		c-0.2-1-0.3-2.1-0.4-3.2c-0.1-1.1-0.2-2.2-0.3-3.3c-0.1-1.1-0.1-2-0.1-2.9C260.7,92,259.7,92,258.6,92 M199,92.4
		c-1.9,0.6-3.6,1.4-5,2.5c-1.4,1.1-2.6,2.4-3.4,4.1s-1.3,3.5-1.3,5.7c0,3,0.5,5.5,1.5,7.5c1,2,2.3,3.6,3.9,4.9
		c1.6,1.3,3.2,2.4,5,3.3c1.8,0.9,3.5,1.7,5,2.4c1.6,0.7,2.9,1.6,3.9,2.4c1,0.9,1.5,2,1.5,3.3c0,1.4-0.6,2.5-1.7,3.4
		c-1.1,0.8-2.5,1.3-4.2,1.3c-1.3,0-2.4-0.2-3.2-0.5c-0.8-0.3-1.5-0.9-2-1.6c-0.5-0.8-0.9-1.8-1.2-3.2c-0.2-1.4-0.4-3.1-0.6-5.2
		c-1.3,0-2.7,0-4.1,0.1c-1.4,0.1-2.8,0.3-4.1,0.7c0,1.9-0.1,3.8-0.2,5.7c-0.1,2-0.4,3.9-0.7,5.8c1.2,0.7,2.4,1.3,3.5,1.7
		c1.1,0.5,2.2,0.9,3.4,1.2c1.2,0.3,2.4,0.5,3.8,0.6c1.4,0.1,3,0.2,4.7,0.2c2.6,0,5-0.3,7.1-1c2.2-0.7,4-1.7,5.6-2.9
		c1.6-1.3,2.8-2.8,3.7-4.6c0.9-1.8,1.3-3.7,1.3-5.9c0-2.7-0.6-5-1.7-6.8c-1.1-1.8-2.5-3.3-4.1-4.6c-1.7-1.2-3.5-2.3-5.4-3.1
		c-1.9-0.8-3.8-1.7-5.4-2.5c-1.7-0.8-3-1.7-4.1-2.7c-1.1-1-1.7-2.2-1.7-3.6c0-1.4,0.5-2.5,1.5-3.2c1-0.7,2.1-1,3.2-1
		c1,0,1.8,0.1,2.6,0.4c0.8,0.3,1.5,0.7,2.1,1.4s1.1,1.6,1.6,2.8s0.8,2.7,1.1,4.6c1.1,0,2.4-0.1,3.9-0.3c1.5-0.2,2.7-0.6,3.7-1.1
		c-0.2-1.2-0.3-2.8-0.4-4.7c-0.1-2-0.1-4-0.1-6c-1.2-0.7-2.9-1.3-5.2-1.8c-2.3-0.5-4.9-0.7-7.8-0.7C203,91.5,200.9,91.8,199,92.4
		 M154.1,116.6c1.1-2.7,2-5.3,2.7-7.6l0.5-1.8c0.2,0.6,0.4,1.2,0.5,1.7c0.7,2.4,1.7,5,2.9,7.7l2.5,5.8h-11.6L154.1,116.6z
		 M144.5,126.2c-0.5,1.3-1,2.4-1.5,3.2c-0.4,0.8-0.8,1.5-1.3,2c-0.4,0.5-0.8,0.9-1.3,1.1s-0.9,0.4-1.5,0.5c-0.3,0.9-0.5,1.7-0.5,2.5
		c-0.1,0.8-0.1,1.7-0.1,2.8c0.7-0.1,1.7-0.1,2.9-0.2c1.3,0,2.5,0,3.6,0h2c0.8,0,1.5,0,2.3,0c0.7,0,1.4,0,2.1,0.1
		c0.7,0,1.2,0.1,1.6,0.1c0-1.1,0-2.1-0.1-2.9c-0.1-0.9-0.2-1.7-0.4-2.4c-0.7-0.1-1.3-0.4-1.7-0.7c-0.4-0.4-0.7-0.8-1-1.3
		c-0.2-0.5-0.3-1-0.3-1.6c0-0.6,0.1-1.1,0.4-1.6l0.1-0.3c2.5-0.2,5-0.4,7.5-0.5c2.7-0.1,5.4-0.2,8-0.2l0.5,1
		c0.7,1.5,0.9,2.7,0.6,3.5c-0.3,0.8-1.2,1.3-2.7,1.7c-0.2,0.7-0.3,1.4-0.4,2.2c-0.1,0.8-0.1,1.8-0.1,3.1c0.6,0,1.5-0.1,2.7-0.1
		c1.1,0,2.3,0,3.5-0.1c1.2,0,2.3,0,3.4,0h4.6c1,0,1.9,0,3,0c1,0,2,0,3,0.1c1,0,1.8,0.1,2.5,0.1c0-1.1,0-2.1-0.1-3
		c-0.1-0.9-0.2-1.7-0.4-2.3c-0.5,0-0.9-0.2-1.3-0.4c-0.4-0.2-0.8-0.6-1.2-1.2c-0.4-0.6-0.9-1.4-1.5-2.4c-0.5-1-1.2-2.4-2-4.2
		l-15.1-33.1c-1,0-1.9,0-2.7,0c-0.7,0-1.6,0.1-2.5,0.4L144.5,126.2z M111,125.4c0,1.6-0.1,2.9-0.3,3.8c-0.2,1-0.6,1.7-1.2,2.2
		c-0.5,0.5-1.3,0.9-2.2,1.2c-0.9,0.2-2.1,0.4-3.5,0.4c-0.2,0.6-0.4,1.5-0.6,2.5c-0.2,1-0.2,2-0.2,2.8c0.7,0,1.7-0.1,2.9-0.1
		c1.2,0,2.5,0,3.9-0.1c1.4,0,2.9,0,4.4,0h4.5c2.9,0,5.5,0,7.9,0c2.3,0,4.1,0.1,5.4,0.2c0-0.9-0.1-1.9-0.2-2.9
		c-0.1-1-0.3-1.8-0.5-2.4c-1.4,0-2.5-0.2-3.4-0.4c-0.9-0.2-1.5-0.6-2-1.2c-0.5-0.5-0.8-1.3-1-2.2c-0.2-1-0.3-2.2-0.3-3.8V97.3h1.4
		c2.3,0,4,0.7,5.1,2.1c1.1,1.4,1.9,3.6,2.6,6.6c1.4,0,2.7-0.1,3.9-0.3c1.2-0.2,2.3-0.5,3.2-0.8c-0.5-2-0.9-4.2-1.2-6.6
		c-0.3-2.3-0.4-4.5-0.4-6.4c-1.4,0-2.8,0.1-4.3,0.1c-1.5,0-3,0-4.6,0.1c-1.6,0-3.4,0-5.4,0H111c-2,0-3.8,0-5.4,0
		c-1.6,0-3.1,0-4.5-0.1c-1.4,0-2.8-0.1-4.2-0.1c0,1,0,2-0.1,3.1c-0.1,1.1-0.2,2.3-0.4,3.4c-0.2,1.2-0.3,2.3-0.5,3.4
		c-0.2,1.1-0.4,2.1-0.6,3c1,0.5,2,0.7,3.3,0.8c1.2,0.1,2.5,0.2,3.7,0.2c0.7-2.9,1.7-5.1,3-6.6c1.3-1.4,3.2-2.1,5.6-2.1h0.1V125.4z
		 M66,116.6c1.1-2.7,2-5.3,2.7-7.6l0.5-1.8c0.2,0.6,0.4,1.2,0.5,1.7c0.7,2.4,1.7,5,2.9,7.7l2.5,5.8H63.6L66,116.6z M56.4,126.2
		c-0.5,1.3-1,2.4-1.5,3.2c-0.4,0.8-0.8,1.5-1.3,2c-0.4,0.5-0.8,0.9-1.3,1.1s-0.9,0.4-1.5,0.5c-0.3,0.9-0.5,1.7-0.5,2.5
		c-0.1,0.8-0.1,1.7-0.1,2.8c0.7-0.1,1.7-0.1,2.9-0.2c1.3,0,2.5,0,3.6,0h2c0.8,0,1.5,0,2.3,0c0.7,0,1.4,0,2.1,0.1
		c0.7,0,1.2,0.1,1.6,0.1c0-1.1,0-2.1-0.1-2.9c-0.1-0.9-0.2-1.7-0.4-2.4c-0.7-0.1-1.3-0.4-1.7-0.7c-0.4-0.4-0.7-0.8-1-1.3
		c-0.2-0.5-0.3-1-0.3-1.6c0-0.6,0.1-1.1,0.4-1.6l0.1-0.3c2.5-0.2,5-0.4,7.5-0.5c2.7-0.1,5.4-0.2,8-0.2l0.5,1
		c0.7,1.5,0.9,2.7,0.6,3.5c-0.3,0.8-1.2,1.3-2.7,1.7c-0.2,0.7-0.3,1.4-0.4,2.2c-0.1,0.8-0.1,1.8-0.1,3.1c0.6,0,1.5-0.1,2.7-0.1
		c1.1,0,2.3,0,3.5-0.1c1.2,0,2.3,0,3.4,0h4.6c1,0,1.9,0,3,0c1,0,2,0,3,0.1c1,0,1.8,0.1,2.5,0.1c0-1.1,0-2.1-0.1-3
		c-0.1-0.9-0.2-1.7-0.4-2.3c-0.5,0-0.9-0.2-1.3-0.4c-0.4-0.2-0.8-0.6-1.2-1.2c-0.4-0.6-0.9-1.4-1.5-2.4c-0.5-1-1.2-2.4-2-4.2
		L75.9,91.7c-1,0-1.9,0-2.7,0c-0.7,0-1.6,0.1-2.5,0.4L56.4,126.2z M29.4,99.5c1.3,1.6,1.9,3.8,1.9,6.8c0,1.4-0.2,2.6-0.7,3.7
		c-0.5,1-1,1.9-1.8,2.6s-1.6,1.2-2.5,1.5c-1,0.3-1.9,0.5-2.9,0.5c-0.3,0-0.7,0-1-0.1c-0.2,0-0.6,0-1-0.1V97.6
		c0.9-0.3,1.9-0.5,2.9-0.5C26.4,97.1,28.1,97.9,29.4,99.5 M7.9,92.1c-2,0-3.7-0.1-5.1-0.2c0,0.2,0,0.6,0,1c0,0.5,0,0.9,0.1,1.5
		c0,0.5,0.1,1,0.1,1.5c0.1,0.5,0.1,0.9,0.2,1.2c1,0.1,1.7,0.3,2.3,0.5c0.6,0.2,1.1,0.6,1.4,1.1c0.3,0.5,0.6,1.2,0.7,2.1
		c0.1,0.9,0.2,2.1,0.2,3.7v20.8c0,1.6-0.1,2.9-0.2,3.8c-0.1,1-0.3,1.7-0.7,2.2c-0.3,0.5-0.8,0.9-1.4,1.2C5,132.8,4.2,133,3.3,133
		c-0.2,0.6-0.3,1.4-0.4,2.2c-0.1,0.9-0.1,1.9-0.1,3.1c1.6-0.1,3.3-0.1,5.1-0.2c1.8,0,3.6,0,5.5,0h2.9c1.1,0,2.2,0,3.3,0
		c1.1,0,2.2,0,3.2,0.1c1,0,1.8,0.1,2.5,0.1c0-1,0-2-0.1-3c-0.1-1-0.2-1.8-0.4-2.3c-0.6,0-1.2-0.1-1.6-0.3c-0.4-0.2-0.7-0.5-1-1.1
		s-0.5-1.4-0.6-2.5c-0.1-1.1-0.2-2.6-0.2-4.4v-4.2h0.5h1.5H24c0.3,0.2,0.6,0.5,0.9,0.7c0.5,0.5,1,1,1.4,1.6c0.4,0.6,0.8,1.4,1.2,2.3
		c0.4,0.9,0.8,2,1.3,3.2c0.7,1.7,1.4,3.5,2,5.3c0.6,1.8,1.2,3.5,1.7,5.1c1.2-0.2,3.2-0.3,6-0.4c2.8-0.1,6-0.1,9.6-0.1
		c0.5-1.7,0.7-3.5,0.7-5.4c-0.7,0-1.2-0.1-1.7-0.3c-0.5-0.2-0.9-0.4-1.3-0.7c-0.4-0.3-0.8-0.8-1.2-1.3c-0.4-0.5-0.8-1.3-1.2-2.2
		c-0.9-1.8-1.7-3.3-2.3-4.5c-0.6-1.2-1.3-2.1-1.9-2.8c-0.6-0.7-1.3-1.3-2-1.6c-0.4-0.2-0.8-0.4-1.3-0.6c0.7-0.2,1.3-0.4,2-0.7
		c1.5-0.7,2.8-1.6,3.9-2.9c1.1-1.2,2-2.7,2.6-4.5c0.6-1.7,1-3.8,1-6.1c0-1.7-0.3-3.4-1-4.9c-0.7-1.6-1.7-2.9-3.1-4.1
		c-1.4-1.2-3.1-2.1-5.3-2.8c-2.1-0.7-4.7-1-7.6-1s-5.7,0.1-8.3,0.2c-2.6,0.1-4.5,0.2-5.8,0.2C12.1,92.2,9.9,92.1,7.9,92.1"/>
	<path class="st1" d="M445.3,29.4c2.2,0,3.5,2.3,3.5,5.6h-7.3C441.7,30.6,443.5,29.4,445.3,29.4 M451.6,41.2
		c-1.2,1.4-2.9,2.2-4.6,2.2c-4,0-5.3-3.2-5.5-6.6c3.9-0.2,9-0.2,10.6-0.2c0.3-0.3,0.5-0.8,0.6-1.3c-0.3-4.3-2.2-7.8-7.1-7.8
		c-4.8,0-7.8,4.2-7.8,9c0,5,2.6,9,8,9c2.8,0,5-0.9,6.7-3.1C452.5,42,452.1,41.5,451.6,41.2 M426.9,28.3h-2.4c-0.3,0.6-0.3,1-0.3,1.7
		c1.2,0.1,2,0.2,2.7,0.5v10.2c0,3.4,1.4,4.9,4.4,4.9c1.6,0,3.4-0.8,4.3-1.7c0-0.4-0.3-0.9-0.6-1.2c-0.7,0.6-1.4,0.9-2.5,0.9
		c-1.4,0-2.2-1.1-2.2-3.6v-9.5c1.2-0.3,2.7-0.4,4.5-0.5c0.2-0.6,0.3-1.2,0.3-1.7h-4.9v-4.5c0-1.6-0.1-1.7-0.6-2
		c-0.8,0.6-1.9,1.2-2.8,1.5V28.3z M420.7,32.8c-0.2-1.3-0.2-2.7-0.1-3.9c-1.6-0.9-3.2-1.3-5.4-1.3c-2.5,0-6.3,1.5-6.3,4.7
		c0,3.1,1.5,4.1,5.6,5.7c3.4,1.4,4.1,2,4.1,3.3c0,1.4-1.2,2.4-3.2,2.4c-2.6,0-4.2-1.6-4.6-4.7c-0.8,0-1.5,0.1-2,0.4
		c0.1,1.2,0.1,3.5,0,4.7c1.7,0.9,3.2,1.4,6.2,1.4c3.9,0,6.9-2.1,6.9-5.3c0-2.7-1.3-4-5.4-5.5c-4-1.6-4.5-2.2-4.5-3.5
		c0-1.2,1-2.1,2.6-2.1c2.5,0,4.1,2.1,4.2,4.2C419.5,33.3,420.2,33.1,420.7,32.8 M403.6,29.2c0-1.1-0.4-1.5-0.8-1.7
		c-1.1,0.5-3.2,1-5.1,1.1c-0.3,0.5-0.3,0.8-0.3,1.4c2.5,0.1,2.8,0.9,2.8,2.7v3.9c0,4.4-1.9,6.5-4.4,6.5c-2.3,0-3.1-1.9-3.1-5.3v-8.6
		c0-1.1-0.4-1.5-0.8-1.7c-1.2,0.6-3.3,1.2-4.8,1.3c-0.2,0.5-0.3,0.8-0.3,1.4c2.3,0.1,2.5,0.9,2.5,2.7v5.7c0,5,2,6.7,5.4,6.7
		c2,0,3.4-0.6,4.7-1.9c0.5-0.5,0.9-1.1,1.2-1.7c-0.1,0.8-0.1,1.2-0.1,1.6c0,1.7,0.4,2,0.9,2.2c1.2-0.6,3.1-1.1,4.3-1.2
		c0.2-0.5,0.2-1.2,0.2-1.7c-2.1,0-2.3-0.8-2.3-2.6V29.2z M375.8,52.6c-3.1,0-4.2-1.3-4.2-3.9c0-1.2,0.3-2.1,1.3-2.9
		c0.6,0,1.2,0.1,2,0.1c5.2,0,6.2,0.7,6.2,2.6C381.1,50.6,379.1,52.6,375.8,52.6 M375.4,29.3c2.4,0,3.7,2.2,3.7,4.9
		c0,2.6-1.2,4-2.8,4c-2.4,0-3.9-1.7-3.9-4.9C372.4,31.3,373.4,29.3,375.4,29.3 M377.4,42.8c-4.8,0-5.5-0.2-5.5-1.6
		c0-0.5,0.3-1.1,0.9-1.8c0.9,0.3,1.9,0.5,2.9,0.5c4.5,0,6.8-2.8,6.8-6.3c0-1.1-0.5-2.7-1.7-4c1.2,0.1,2.7,0.4,3.7,0.6
		c0-0.8-0.1-1.7-0.3-2.3h-6.2c-0.7-0.2-1.5-0.3-2.4-0.3c-4.5,0-6.8,2.8-6.8,6.3c0,2.2,0.9,3.8,2.4,4.8c-1.2,1.2-2,2.6-2,4
		c0,1.4,0.4,2.3,1.8,2.8c-1.8,0.8-2.8,2.2-2.8,4.1c0,3.3,1.9,5.1,6.6,5.1c5.4,0,9.4-4.2,9.4-7.6C384.3,44,382.5,42.8,377.4,42.8
		 M363.4,27.9c-2,0-3.5,1.3-4.6,3.1c-0.3,0.5-0.5,1.1-0.8,2c0.2-1.1,0.5-2.3,0.5-3.7c0-1.1-0.4-1.5-0.8-1.7
		c-1.2,0.6-3.5,1.2-5.1,1.3c-0.3,0.4-0.3,0.8-0.3,1.4c2.5,0.1,2.8,0.9,2.8,2.7v7.5c0,2.5-0.6,3.2-2.6,3.3c-0.2,0.4-0.2,0.9-0.2,1.6
		c1-0.1,3.2-0.1,5-0.1c1.8,0,3.6,0,4.8,0.1c0-0.7,0-1.2-0.2-1.6c-2.4-0.1-3.4-0.8-3.4-4V36c0-2.9,1.9-5.4,3.2-5.4
		c1,0,1.7,0.5,1.9,2.9c0.8,0,1.7-0.2,2.2-0.3c0-1.3,0.1-3.2,0.3-4.5C365.2,28.2,364.4,27.9,363.4,27.9 M343.7,38.1
		c0,3.8-2.2,5.3-3.8,5.3c-1.2,0-2.2-0.8-2.2-2.7c0-3.3,3.4-3.7,6-4.1V38.1z M347.1,35.5c0-3.4-0.3-5.3-1.6-6.5
		c-0.8-0.8-2.2-1.4-4-1.4c-1.9,0-4.4,0.6-6.4,1.7c0.2,1.1,0.3,2.9,0.2,4.1c0.4,0.2,1.4,0.3,2,0.3c0.1-1.6,0.8-4.4,3.3-4.4
		c0.9,0,1.7,0.4,2.3,1.1c0.6,0.8,0.8,1.6,0.8,4.7c-3.1,0.5-9.7,1.5-9.7,6.4c0,2.5,1.7,4,4.8,4c1.8,0,3.1-0.5,3.9-1.3
		c0.6-0.5,1-1.1,1.3-1.8c0,0.3-0.1,0.7-0.1,1.1c0,1.6,0.4,1.9,0.9,2.1c1.2-0.6,3.1-1.1,4.3-1.2c0.2-0.5,0.2-1.2,0.2-1.7
		c-2.1,0-2.3-0.8-2.3-2.6V35.5z M330.6,43.7c-1.5-0.1-2.3-0.7-2.3-3.3v-6.5c0-4.6-2.5-6.2-5.3-6.2c-2.6,0-4.6,1.6-5.4,2.7
		c-0.3,0.3-0.5,0.7-0.6,1.2c0-0.3-0.1-0.7-0.2-0.9c-0.8-2.3-2.7-3.2-4.8-3.2c-2.6,0-4.6,1.6-5.4,2.7c-0.1,0.1-0.3,0.4-0.6,1.2
		c0.1-1.1,0.2-1.8,0.2-2.4c0-0.9-0.4-1.4-0.8-1.5c-1,0.6-3.6,1.2-4.9,1.3c-0.3,0.4-0.3,0.8-0.3,1.4c2.5,0.1,2.8,0.9,2.8,2.7v7.5
		c0,2.5-0.6,3.2-2.6,3.3c-0.2,0.4-0.2,0.9-0.2,1.6c1.2-0.1,3.2-0.1,4.5-0.1s3.2,0,4.5,0.1c0-0.7,0-1.2-0.2-1.6
		c-2-0.1-2.6-0.8-2.6-3.3v-4.2c0-4.6,2.3-6.3,4.2-6.3c2,0,3.5,1.1,3.5,4.6v5.9c0,2.5-0.6,3.2-2.6,3.3c-0.2,0.4-0.2,0.9-0.2,1.6
		c1.4-0.1,3-0.1,4.5-0.1c1.5,0,3.2,0,4.5,0.1c0-0.7,0-1.2-0.2-1.6c-1.9-0.1-2.6-0.7-2.6-3.3v-4c0-4.6,2.3-6.3,4.2-6.3
		c2,0,3.5,1.1,3.5,4.6v5.7c0,2.5-0.6,3.2-2.6,3.3c-0.2,0.4-0.2,0.9-0.2,1.6c1.2-0.1,3-0.1,4.5-0.1c1.5,0,3,0,4.1,0.1
		C330.8,44.6,330.8,44.1,330.6,43.7 M297.2,43.7c-1.5-0.1-2.3-0.7-2.3-3.3v-6.5c0-4.6-2.5-6.2-5.3-6.2c-2.6,0-4.6,1.6-5.4,2.7
		c-0.3,0.3-0.5,0.7-0.6,1.2c0-0.3-0.1-0.7-0.2-0.9c-0.8-2.3-2.7-3.2-4.8-3.2c-2.6,0-4.6,1.6-5.4,2.7c-0.1,0.1-0.3,0.4-0.6,1.2
		c0.1-1.1,0.2-1.8,0.2-2.4c0-0.9-0.4-1.4-0.8-1.5c-1,0.6-3.6,1.2-4.9,1.3c-0.3,0.4-0.3,0.8-0.3,1.4c2.5,0.1,2.8,0.9,2.8,2.7v7.5
		c0,2.5-0.6,3.2-2.6,3.3c-0.2,0.4-0.2,0.9-0.2,1.6c1.2-0.1,3.2-0.1,4.5-0.1s3.2,0,4.5,0.1c0-0.7,0-1.2-0.2-1.6
		c-2-0.1-2.6-0.8-2.6-3.3v-4.2c0-4.6,2.3-6.3,4.2-6.3c2,0,3.5,1.1,3.5,4.6v5.9c0,2.5-0.6,3.2-2.6,3.3c-0.2,0.4-0.2,0.9-0.2,1.6
		c1.4-0.1,3-0.1,4.5-0.1c1.5,0,3.2,0,4.5,0.1c0-0.7,0-1.2-0.2-1.6c-1.9-0.1-2.6-0.7-2.6-3.3v-4c0-4.6,2.3-6.3,4.2-6.3
		c2,0,3.5,1.1,3.5,4.6v5.7c0,2.5-0.6,3.2-2.6,3.3c-0.2,0.4-0.2,0.9-0.2,1.6c1.2-0.1,3-0.1,4.5-0.1c1.5,0,3,0,4.1,0.1
		C297.4,44.6,297.3,44.1,297.2,43.7 M261.6,29.2c0-1.1-0.4-1.5-0.8-1.7c-1.1,0.5-3.2,1-5.1,1.1c-0.3,0.5-0.3,0.8-0.3,1.4
		c2.5,0.1,2.8,0.9,2.8,2.7v3.9c0,4.4-1.9,6.5-4.4,6.5c-2.3,0-3.1-1.9-3.1-5.3v-8.6c0-1.1-0.4-1.5-0.8-1.7c-1.2,0.6-3.2,1.2-4.8,1.3
		c-0.2,0.5-0.3,0.8-0.3,1.4c2.3,0.1,2.5,0.9,2.5,2.7v5.7c0,5,2,6.7,5.4,6.7c2,0,3.4-0.6,4.7-1.9c0.5-0.5,0.9-1.1,1.2-1.7
		c-0.1,0.8-0.1,1.2-0.1,1.6c0,1.7,0.4,2,0.9,2.2c1.2-0.6,3.1-1.1,4.3-1.2c0.2-0.5,0.2-1.2,0.2-1.7c-2.1,0-2.3-0.8-2.3-2.6V29.2z
		 M257.9,25.1c1.5,0,2-1.1,2-2.1c0-1.1-0.9-1.9-2.2-1.9c-1.2,0-2.1,0.7-2.1,1.9C255.7,24.2,256.4,25.1,257.9,25.1 M250.5,25.1
		c1.2,0,2.1-0.8,2.1-2c0-1.2-0.6-2.1-2.2-2.1c-1.5,0-2.1,1.1-2.1,2.2S249.2,25.1,250.5,25.1"/>
	<path class="st1" d="M507.5,103.6c-2,0-3.5,1.3-4.6,3.1c-0.3,0.5-0.5,1.1-0.8,2c0.2-1.1,0.5-2.3,0.5-3.7c0-1.1-0.4-1.5-0.8-1.7
		c-1.2,0.6-3.5,1.2-5.1,1.3c-0.3,0.4-0.3,0.8-0.3,1.4c2.5,0.1,2.8,0.9,2.8,2.7v7.5c0,2.5-0.6,3.2-2.6,3.3c-0.2,0.4-0.2,0.9-0.2,1.6
		c1-0.1,3.2-0.1,5-0.1c1.8,0,3.6,0,4.8,0.1c0-0.7,0-1.2-0.2-1.6c-2.4-0.1-3.4-0.8-3.4-4v-3.6c0-2.9,1.9-5.4,3.2-5.4
		c1,0,1.7,0.5,1.9,2.9c0.8,0,1.7-0.2,2.2-0.3c0-1.3,0.1-3.2,0.3-4.5C509.3,103.9,508.6,103.6,507.5,103.6 M484.6,105.1
		c2.8,0,5.1,2.9,5.1,7.6c0,4-1.4,6.7-4.5,6.7c-3.1,0-5-2.9-5-8C480.3,107.7,481.7,105.1,484.6,105.1 M485,103.3c-5,0-8.5,3.9-8.5,9
		c0,5.4,3.4,9,8.5,9c5.1,0,8.5-3.8,8.5-9C493.5,106.9,490.4,103.3,485,103.3 M465.5,104h-2.4c-0.3,0.6-0.3,1-0.3,1.7
		c1.2,0.1,2,0.2,2.7,0.5v10.2c0,3.4,1.4,4.9,4.4,4.9c1.6,0,3.4-0.8,4.3-1.7c0-0.4-0.3-0.9-0.6-1.2c-0.7,0.6-1.4,0.9-2.5,0.9
		c-1.4,0-2.2-1.1-2.2-3.6v-9.4c1.2-0.3,2.7-0.4,4.5-0.5c0.2-0.6,0.3-1.2,0.3-1.7H469v-4.5c0-1.6-0.1-1.7-0.6-2
		c-0.8,0.6-1.9,1.2-2.8,1.5V104z M455.4,113.8c0,3.8-2.2,5.3-3.8,5.3c-1.2,0-2.2-0.8-2.2-2.7c0-3.3,3.4-3.7,6-4.1V113.8z
		 M458.8,111.3c0-3.4-0.3-5.3-1.6-6.5c-0.8-0.8-2.2-1.4-4-1.4c-1.9,0-4.4,0.6-6.4,1.7c0.2,1.1,0.3,2.9,0.2,4.1
		c0.4,0.2,1.4,0.3,2,0.3c0.1-1.6,0.8-4.4,3.3-4.4c0.9,0,1.7,0.4,2.3,1.1c0.6,0.8,0.8,1.6,0.8,4.7c-3.1,0.5-9.7,1.5-9.7,6.4
		c0,2.5,1.7,4,4.8,4c1.8,0,3.1-0.5,3.9-1.3c0.6-0.5,1-1.1,1.3-1.8c0,0.3-0.1,0.7-0.1,1.1c0,1.6,0.4,1.9,0.9,2.1
		c1.2-0.6,3.1-1.1,4.3-1.2c0.2-0.5,0.2-1.2,0.2-1.7c-2.1,0-2.3-0.8-2.3-2.6V111.3z M436.5,113.8c0,3.8-2.2,5.3-3.8,5.3
		c-1.2,0-2.2-0.8-2.2-2.7c0-3.3,3.4-3.7,6-4.1V113.8z M439.9,111.3c0-3.4-0.3-5.3-1.6-6.5c-0.8-0.8-2.2-1.4-4-1.4
		c-1.9,0-4.4,0.6-6.4,1.7c0.2,1.1,0.3,2.9,0.2,4.1c0.4,0.2,1.4,0.3,2,0.3c0.1-1.6,0.8-4.4,3.3-4.4c0.9,0,1.7,0.4,2.3,1.1
		c0.6,0.8,0.8,1.6,0.8,4.7c-3.1,0.5-9.7,1.5-9.7,6.4c0,2.5,1.7,4,4.8,4c1.8,0,3.1-0.5,3.9-1.3c0.6-0.5,1-1.1,1.3-1.8
		c0,0.3-0.1,0.7-0.1,1.1c0,1.6,0.4,1.9,0.9,2.1c1.2-0.6,3.1-1.1,4.3-1.2c0.2-0.5,0.2-1.2,0.2-1.7c-2.1,0-2.3-0.8-2.3-2.6V111.3z
		 M421.6,103.6c-2,0-3.5,1.3-4.6,3.1c-0.3,0.5-0.5,1.1-0.8,2c0.2-1.1,0.5-2.3,0.5-3.7c0-1.1-0.4-1.5-0.8-1.7
		c-1.2,0.6-3.5,1.2-5.1,1.3c-0.3,0.4-0.3,0.8-0.3,1.4c2.5,0.1,2.8,0.9,2.8,2.7v7.5c0,2.5-0.6,3.2-2.6,3.3c-0.2,0.4-0.2,0.9-0.2,1.6
		c1-0.1,3.2-0.1,5-0.1c1.8,0,3.6,0,4.8,0.1c0-0.7,0-1.2-0.2-1.6c-2.4-0.1-3.4-0.8-3.4-4v-3.6c0-2.9,1.9-5.4,3.2-5.4
		c1,0,1.7,0.5,1.9,2.9c0.8,0,1.7-0.2,2.2-0.3c0-1.3,0.1-3.2,0.3-4.5C423.4,103.9,422.6,103.6,421.6,103.6 M400.2,105.1
		c2.2,0,3.5,2.3,3.5,5.6h-7.3C396.6,106.3,398.4,105.1,400.2,105.1 M406.6,117c-1.2,1.4-2.9,2.2-4.6,2.2c-4,0-5.3-3.2-5.5-6.6
		c3.9-0.2,9-0.2,10.6-0.2c0.3-0.3,0.5-0.8,0.6-1.3c-0.3-4.3-2.2-7.8-7.1-7.8c-4.8,0-7.8,4.2-7.8,9c0,5,2.6,9,8,9
		c2.8,0,5-0.9,6.7-3.1C407.4,117.7,407,117.2,406.6,117 M389.7,119.4c-1.5,0-2.2-0.7-2.2-3.3v-6.5c0-4.6-2.5-6.2-5.4-6.2
		c-2.7,0-4.6,1.6-5.5,2.7c-0.3,0.4-0.4,0.7-0.6,1c0.2-0.9,0.3-1.6,0.3-2.2c0-1.1-0.4-1.5-0.8-1.7c-1.2,0.6-3.5,1.2-5.1,1.3
		c-0.3,0.4-0.3,0.8-0.3,1.4c2.5,0.1,2.8,0.9,2.8,2.7v7.5c0,2.5-0.6,3.3-2.6,3.3c-0.2,0.4-0.2,0.9-0.2,1.6c1.1-0.1,2.9-0.1,4.5-0.1
		c1.5,0,3.4,0.1,4.5,0.1c0-0.7,0-1.2-0.2-1.6c-2,0-2.6-0.8-2.6-3.3v-4c0-4.6,2.3-6.3,4.3-6.3c2,0,3.5,1.1,3.5,4.6v5.7
		c0,2.5-0.8,3.3-2.6,3.3c-0.2,0.4-0.2,0.9-0.2,1.6c1.2,0,2.9-0.1,4.5-0.1c1.5,0,3,0,4.1,0.1C389.9,120.4,389.8,119.9,389.7,119.4
		 M359.7,105.1c2.2,0,3.5,2.3,3.5,5.6H356C356.1,106.3,358,105.1,359.7,105.1 M366.1,117c-1.2,1.4-2.9,2.2-4.6,2.2
		c-4,0-5.3-3.2-5.5-6.6c3.9-0.2,9-0.2,10.6-0.2c0.3-0.3,0.5-0.8,0.6-1.3c-0.3-4.3-2.2-7.8-7.1-7.8c-4.8,0-7.8,4.2-7.8,9
		c0,5,2.6,9,8,9c2.8,0,5-0.9,6.7-3.1C366.9,117.7,366.5,117.2,366.1,117 M340.5,128.3c-3.1,0-4.2-1.3-4.2-3.9c0-1.2,0.3-2.1,1.3-2.9
		c0.6,0,1.2,0.1,2,0.1c5.2,0,6.2,0.7,6.2,2.6C345.8,126.4,343.8,128.3,340.5,128.3 M340,105c2.4,0,3.7,2.2,3.7,4.9
		c0,2.6-1.2,4-2.8,4c-2.4,0-3.9-1.7-3.9-4.9C337.1,107,338,105,340,105 M342.1,118.5c-4.8,0-5.5-0.2-5.5-1.6c0-0.5,0.3-1.1,0.9-1.8
		c0.9,0.3,1.9,0.5,2.9,0.5c4.5,0,6.8-2.8,6.8-6.3c0-1.1-0.5-2.7-1.7-4c1.2,0.1,2.7,0.4,3.7,0.6c0-0.8-0.1-1.7-0.3-2.3h-6.2
		c-0.7-0.2-1.5-0.3-2.4-0.3c-4.5,0-6.8,2.8-6.8,6.3c0,2.2,0.9,3.8,2.4,4.8c-1.2,1.2-2,2.6-2,4c0,1.4,0.4,2.3,1.8,2.8
		c-1.8,0.8-2.8,2.2-2.8,4.1c0,3.3,1.9,5.1,6.6,5.1c5.4,0,9.4-4.2,9.4-7.6C348.9,119.7,347.1,118.5,342.1,118.5"/>
	<path class="st1" d="M536.6,67c2.2,0,3.5,2.3,3.5,5.6h-7.3C533,68.2,534.8,67,536.6,67 M542.9,78.9c-1.2,1.4-2.9,2.2-4.6,2.2
		c-4,0-5.3-3.2-5.5-6.6c3.9-0.2,9-0.2,10.6-0.2c0.3-0.3,0.5-0.8,0.6-1.3c-0.3-4.3-2.2-7.8-7.1-7.8c-4.8,0-7.8,4.2-7.8,9
		c0,5,2.6,9,8,9c2.8,0,5-0.9,6.7-3.1C543.8,79.6,543.3,79.1,542.9,78.9 M518.2,65.9h-2.4c-0.3,0.6-0.3,1-0.3,1.7
		c1.2,0.1,2,0.2,2.7,0.5v10.2c0,3.4,1.4,4.9,4.4,4.9c1.6,0,3.4-0.8,4.3-1.7c0-0.4-0.3-0.9-0.6-1.2c-0.7,0.6-1.4,0.9-2.5,0.9
		c-1.4,0-2.2-1.1-2.2-3.6v-9.4c1.2-0.3,2.7-0.4,4.5-0.5c0.2-0.6,0.3-1.2,0.3-1.7h-4.9v-4.5c0-1.6-0.1-1.7-0.6-2
		c-0.8,0.6-1.9,1.2-2.8,1.5V65.9z M512,70.4c-0.2-1.3-0.2-2.7-0.1-3.9c-1.6-0.9-3.2-1.3-5.4-1.3c-2.5,0-6.3,1.5-6.3,4.7
		c0,3.1,1.5,4.1,5.6,5.7c3.4,1.4,4.1,2,4.1,3.3c0,1.4-1.2,2.4-3.3,2.4c-2.6,0-4.2-1.6-4.6-4.7c-0.8,0-1.5,0.1-2,0.4
		c0.1,1.2,0.1,3.5,0,4.7c1.7,0.9,3.2,1.4,6.2,1.4c3.9,0,6.9-2.1,6.9-5.3c0-2.7-1.3-4-5.4-5.5c-4-1.6-4.5-2.2-4.5-3.5
		c0-1.2,1-2.1,2.6-2.1c2.5,0,4.1,2.1,4.2,4.2C510.8,70.9,511.5,70.7,512,70.4 M494.9,66.8c0-1.1-0.4-1.5-0.8-1.7
		c-1.1,0.5-3.2,1-5.1,1.1c-0.3,0.5-0.3,0.8-0.3,1.4c2.5,0.1,2.8,0.9,2.8,2.7v3.9c0,4.4-1.9,6.5-4.4,6.5c-2.3,0-3.1-1.9-3.1-5.3v-8.6
		c0-1.1-0.4-1.5-0.8-1.7c-1.2,0.6-3.3,1.2-4.8,1.3c-0.2,0.5-0.3,0.8-0.3,1.4c2.3,0.1,2.5,0.9,2.5,2.7v5.7c0,5,2,6.7,5.4,6.7
		c2,0,3.4-0.6,4.7-1.9c0.5-0.5,0.9-1.1,1.2-1.7c-0.1,0.8-0.1,1.2-0.1,1.6c0,1.7,0.4,2,0.9,2.2c1.2-0.6,3.1-1.1,4.3-1.2
		c0.2-0.5,0.2-1.2,0.2-1.7c-2.1,0-2.3-0.8-2.3-2.6V66.8z M467.6,65.9h-2.4c-0.3,0.6-0.3,1-0.3,1.7c1.2,0.1,2,0.2,2.7,0.5v10.2
		c0,3.4,1.4,4.9,4.4,4.9c1.6,0,3.4-0.8,4.3-1.7c0-0.4-0.3-0.9-0.6-1.2c-0.7,0.6-1.4,0.9-2.5,0.9c-1.4,0-2.2-1.1-2.2-3.6v-9.4
		c1.2-0.3,2.7-0.4,4.5-0.5c0.2-0.6,0.3-1.2,0.3-1.7H471v-4.5c0-1.6-0.1-1.7-0.6-2c-0.8,0.6-1.9,1.2-2.8,1.5V65.9z M461.4,70.4
		c-0.2-1.3-0.2-2.7-0.1-3.9c-1.5-0.9-3.2-1.3-5.4-1.3c-2.5,0-6.3,1.5-6.3,4.7c0,3.1,1.5,4.1,5.6,5.7c3.4,1.4,4.1,2,4.1,3.3
		c0,1.4-1.2,2.4-3.3,2.4c-2.6,0-4.2-1.6-4.6-4.7c-0.8,0-1.6,0.1-2,0.4c0.1,1.2,0.1,3.5,0,4.7c1.7,0.9,3.2,1.4,6.2,1.4
		c3.9,0,6.9-2.1,6.9-5.3c0-2.7-1.3-4-5.4-5.5c-4-1.6-4.5-2.2-4.5-3.5c0-1.2,1-2.1,2.6-2.1c2.5,0,4.1,2.1,4.2,4.2
		C460.3,70.9,460.9,70.7,461.4,70.4 M440.7,75.7c0,3.8-2.2,5.3-3.8,5.3c-1.2,0-2.2-0.8-2.2-2.7c0-3.3,3.4-3.7,6-4.1V75.7z
		 M444.1,73.2c0-3.4-0.3-5.3-1.6-6.5c-0.8-0.8-2.2-1.4-4-1.4c-1.9,0-4.4,0.6-6.4,1.7c0.2,1.1,0.3,2.9,0.2,4.1c0.4,0.2,1.4,0.3,2,0.3
		c0.1-1.6,0.8-4.4,3.3-4.4c0.9,0,1.7,0.4,2.3,1.1c0.6,0.8,0.8,1.6,0.8,4.7c-3.1,0.5-9.7,1.5-9.7,6.4c0,2.5,1.7,4,4.8,4
		c1.8,0,3.1-0.5,3.9-1.3c0.6-0.5,1-1.1,1.3-1.8c0,0.3-0.1,0.7-0.1,1.1c0,1.6,0.4,1.9,0.9,2.1c1.2-0.6,3.1-1.1,4.3-1.2
		c0.2-0.5,0.2-1.2,0.2-1.7c-2.1,0-2.3-0.8-2.3-2.6V73.2z M425,65.5c-1.2,0-2.5,0-3.5-0.1c0,0.5,0.2,1.1,0.4,1.6
		c1.9,0.2,2.5,1.2,1.2,4.5l-2.9,7.6c-1.3-3.2-3.4-8.1-4.1-9.5c-0.9-2-0.7-2.4,1.9-2.6c0.2-0.5,0.3-1,0.3-1.5
		c-1.2,0.1-3.1,0.1-4.6,0.1c-1.6,0-2.9,0-4-0.1c0,0.7,0,1,0.2,1.6c1,0.1,1.4,0.4,2.3,2.4c0.8,1.6,5.2,11.3,6.1,13.4
		c0.5,0.2,1.1,0.3,1.7,0.3l5.1-12c1.2-3,1.8-3.9,3-4.1c0.2-0.5,0.3-0.9,0.3-1.6C427.6,65.5,426.2,65.5,425,65.5"/>
</g>
</svg>
